<svg width="400" height="400" fill="none" xmlns="http://www.w3.org/2000/svg"><g clip-path="url(#a)"><rect width="400" height="400" rx="50" fill="#000"/><g opacity=".3" fill-rule="evenodd" clip-rule="evenodd" fill="#fff" clip-path="url(#b)"><path opacity=".5" d="m449 113 3-1 1 2-3 1 2 6h-1l-2-6-7 2 2 6-3-6-6 1 2 7-3-7-6 1 3 7-3-6-6 1 4 7h-1l-3-7-5 2 3 6-4-6-4 2a373 373 0 0 1-1 0l-5 3 4 6v1l-4-7-5 4 4 6h-1l-4-6-9 8-1-2 9-7-9-14-10 8-1-2 10-8-10-14-11 10-1-2 11-9-11-14-11 11-1-1c4-6 7-8 11-11l-11-14-11 13-2-1 12-13-11-13-12 15-1-2c5-7 7-10 12-14l-11-13-13 17-1-1 13-17-10-12-15 19-1-1 15-19-10-11c-6 7-10 11-16 21l-1-1c6-10 10-14 16-21L293-1l1-1 15 18 9-10-13-19 1-2 13 20 8-6-11-22 1-1c3 9 6 13 11 22l9-4c-6-10-8-14-11-23l1-1c3 9 5 14 11 23l9-3-11-23 1-1 11 23 10-2c-5-10-7-14-10-24h1l10 24 10-2-9-24h1l10 24 11-2-9-24h2l8 24 12-1-8-24h1l8 24h5l1 1-5 1 5 14h5l1 2h-5l6 15h5v1l-4 1 6 14h5v2h-4l6 15 4-1 1 2-4 1 6 14h4l1 1-4 1 6 15 4-1v2h-4l6 15 4-1v2l-3 1 5 14Zm-1 0-5-14-8 1 6 15 7-2Zm-7 2-6-15-7 2 6 14 7-1Zm-8 2-6-15-6 1 7 15 5-1Zm-6 1-7-15-6 2 8 14 5-1Zm-6 1-8-14-5 1 8 15 5-2Zm-6 2-8-14-5 2 9 14 4-2Zm-5 3-8-15-6 3 9 14 5-2Zm-5 3-9-15-6 4 10 14 5-3Zm-16-12 6-4-10-14-6 4 10 14Zm6-4 6-3-10-15-5 3 9 15Zm6-4 5-2-8-15-6 3 9 14Zm6-2 6-2-9-15-6 2 9 15Zm6-2 6-2-7-14-7 1 8 15Zm7-2 6-1-7-15-7 1 8 15Zm7-1 7-1-6-15-8 1 7 15Zm8-1 7-2-5-14-9 1 7 15Zm1-18-6-15-9 1 7 15 8-1Zm-9 1-7-15-8 2 7 14 8-1Zm-8 2-8-15-7 1 8 15 7-1Zm-8 1-8-15-7 2 8 14 7-1Zm-7 2-9-15-7 2 9 15 7-2Zm-7 2-9-15-7 3 10 14 6-2Zm-7 3-9-15-7 4 11 14 5-3Zm-6 3-10-14-6 5 10 13 6-4Zm-17-11 6-4-11-14c-2 2-4 2-6 5l11 13Zm6-5 7-3-10-15-7 4 10 14Zm7-4 7-2-10-15-7 3 10 14Zm7-3 7-2-9-14-7 2 9 14Zm8-2 7-2-8-14-8 1 9 15Zm8-2 7-1-7-15-8 1 8 15Zm8-1 8-1-7-15-8 1 7 15Zm9-1 9-1-6-15-10 1 7 15Zm2-18-6-15-10 1 7 15 9-1Zm-10 1-7-15-10 2 8 14 9-1Zm-10 1-8-14-9 1 9 15 8-2Zm-9 2-9-15-8 2 9 15 8-2Zm-9 2-9-15-8 3 10 14 7-2Zm-8 3-9-15-8 3 10 15 7-3Zm-8 3-10-14-7 4 11 14 6-4Zm-7 4-10-13-7 5 11 13 6-5Zm-18-9 7-6-11-13-7 6 11 13Zm7-6 7-5-9-14-8 5 10 13v1Zm8-5 8-3-10-15-8 4 10 14Zm8-4 8-2-9-15-8 3 9 14Zm9-3 8-1-8-15-9 2 9 14Zm9-2 9-1-7-15-10 2 8 14Zm10-1 10-1-7-15-10 1 7 15Zm11-1 10-1-7-15-10 1 7 15Zm3-18-6-15-12 1 7 15 11-1Zm-12 1-7-15-10 2 7 14 10-1Zm-11 2-7-15-10 1 7 15 10-1Zm-11 1-8-14-9 2 8 14 9-2Zm-10 3-8-15-9 3 9 14 8-2Zm-9 3-9-14-8 4 9 13 8-3Zm-8 4-10-14-7 5 9 13 8-4Zm-9 5-9-13-8 8 10 12 7-7Zm-18-6 8-8-9-13-9 10 10 11Zm9-9 7-5-8-14-8 6 9 13Zm8-6 8-4-8-14-8 5 8 13Zm9-4 9-3-7-15-10 4 8 14Zm10-4 10-2-8-14-9 2 7 14Zm11-2 10-2-7-14-10 1 7 15Zm11-2 11-1-7-15-11 1 7 15Zm12-1 11-1-6-15-11 1 6 15Z"/><path d="m287 18-5-5-1 2 5 5-6 8 1 1 6-8c41 38 80 75 111 122l1-1c-32-46-71-84-111-123 15-18 28-34 50-42 19-7 39-8 58-10v-2c-20 2-40 3-59 10-22 8-35 25-50 43Z"/><path d="m403 150-4-8-1 1 5 8-4 2 1 2 4-3c28 51 29 96 26 153h1c3-57 2-103-27-153 18-13 34-16 54-22v-2c-21 6-37 10-55 22Z"/><path opacity=".5" d="m151 301 10-2v1l-9 3 3 5-2 1-3-6-21 5 4 6h-3l-3-6-20 5a485 485 0 0 1 2 6l-4-5-19 5 4 5-2 1-4-6-17 5a2081 2081 0 0 1-2 0l-15 5 5 6-2 1-4-6-13 5 4 6h-1l-4-6c-5 2-7 3-10 6l4 5-1 1-4-6-8 5 4 6h-1l-3-5-10 8-1-1 10-9-8-13-9 9-1-2 9-8-7-13-8 9-1-2 9-8-7-13-7 8-1-1 8-9-5-13-7 9-1-2 7-8-4-13-7 8v-1c2-3 3-5 7-8l-4-13-6 8v-2l6-8-2-13-6 8-1-1 7-8-1-13-7 8v-2l7-7-1-21v-1l1 21 5-5a391 391 0 0 1 1 0l6-5-1-20v-1l2 21 7-5a284 284 0 0 1 1-1l10-5-3-19 1-1 3 20 13-5-6-20h2l5 19 15-4-7-19 1-1 8 20 16-4-9-19 1-1 10 20 16-4-11-18 2-1 11 19 8-1v1l-7 1 8 12 8-2 1 2-8 1 9 11 8-1 1 1-8 2 9 12 9-2 1 1-9 2 9 12a1823 1823 0 0 1 1 2l8 13 10-2 1 1-10 2 9 13 10-2 1 2-10 2 9 13 10-2 1 1-10 2 8 13Zm-2 1-8-13-22 4 9 13 21-4Zm-23 5-9-13-20 5 9 13 20-5Zm-22 5-9-13-19 5 9 13 19-5Zm-21 6-9-13-17 5 9 12 17-4Zm-19 5-9-13-15 5 9 13 15-5Zm-16 6-10-13-12 5 9 12 13-4Zm-14 5-9-13-10 5 9 13 10-5Zm-11 6-9-13-6 5 7 13 8-5ZM7 330l6-5-7-13-6 6 7 12Zm7-5 10-5-9-13-8 5 7 13Zm11-6 12-5-9-13-11 5 8 13Zm14-5 15-5-9-13-15 5 9 13Zm17-6 17-5-10-13-17 5 10 13Zm19-5 19-5-10-13-19 5 10 13Zm21-6 20-4-9-13-21 4 10 13Zm22-5 22-5-9-13-22 5 9 13Zm12-19-9-13-22 4 9 14 22-5Zm-24 5-9-13-21 5 9 13 21-5Zm-23 5-9-13-19 5 9 13 19-5Zm-21 6-9-13-16 5 8 13 17-5Zm-18 5-9-13-14 5 8 13 15-5Zm-16 6-9-13-11 5 8 13 12-5Zm-13 5-8-13-7 6 6 12 9-5Zm-10 6-6-13-6 5 6 13 6-5Zm-13-9 6-5-5-13-6 5 5 13Zm7-6 7-5-6-13-7 5 6 13Zm8-6 11-5-7-13-10 6 6 12Zm13-5 14-5-8-13-13 5 7 13Zm16-6 16-5-8-13-16 5 8 13Zm18-5 19-5-9-13-18 5 8 13Zm21-6 21-5-9-13-21 5 9 13Zm23-5 22-5-9-13-21 5 8 13Zm12-19-9-13-20 5 8 12 21-4Zm-24 5-8-13-19 5 7 13 20-5Zm-23 5-7-13-18 5 7 13 18-5Zm-20 6-7-13-16 5 7 13 16-5Zm-18 5-6-13-13 5 6 13 13-5Zm-14 6-6-13-9 5 5 13 10-5Zm-11 6-5-13-7 5 5 13 7-5Zm-8 5-4-13-6 5 5 13 5-5Zm-10-9 5-5-3-13-5 5 3 13Zm6-6 7-5-3-13-7 5 3 13Zm8-5 9-6-4-12-9 5 4 13Zm10-6 12-5-4-13-12 5 4 13Zm14-6 16-5-6-13-15 5 5 13Zm18-5 18-5-7-13-17 5 6 13Zm20-6 19-4-7-13-19 5 7 12Zm22-5 20-4-9-12-19 4 8 12Zm10-17-8-12-18 4 7 12 19-4Zm-21 4-7-12-18 4 6 12 19-4Zm-21 5-6-12-16 4 5 12 17-4Zm-18 5-5-13-14 5 4 13 15-5Zm-17 5-4-12-10 5 3 13 11-6Zm-12 6-3-12-8 5 2 12 9-5Zm-10 6-2-13-6 5 2 13 6-5Zm-7 5-2-12-5 4 2 13 5-5Zm-8-9 6-5-2-12-5 4 1 13Zm6-5 7-5-2-13-6 5 1 13Zm8-6 8-5-2-12-8 5 2 12Zm9-5 10-5-3-12-10 4 3 13Zm11-6 14-5-4-12-13 5 3 12Zm16-5 16-5-6-12-14 5 4 12Zm18-5 17-4-7-12-16 4 6 12Zm19-5 18-3-8-11-17 3 7 11Z"/><path d="M-30 221v-7l-1 1v7l-2 2v2l2-3c3 50 18 92 43 135h1c-26-44-40-85-43-135 25-30 67-38 104-44l-1-1c-37 6-78 13-103 43Z"/><path opacity=".5" d="m192 442 5-2v2l-5 2v5l-1 1v-6l-12 5 1 6-1 1-1-6-11 5a562 562 0 0 1-1 6l-1-5-11 5 2 5-1 1-2-6-10 5 1 6-1 1-2-6-10 5 2 6h-1l-2-5-10 5 2 5-1 1-2-6-9 5 2 6-1 1-2-6-9 5 2 6h-1l-2-5-14 8-1-1 15-9-5-13-15 9v-2l14-8-6-13-14 9v-2l13-8-6-13-14 8v-1l13-9-7-13c-6 4-9 5-13 9l-1-2 13-8-8-13-13 9-1-2 13-8-8-13-13 8-1-1 13-9-9-12-12 8-1-1 12-9-9-13-11 9-1-2 11-8-14-22h1l14 21 9-5-15-21 1-1 15 22 11-5-16-22h1l16 21 13-5-16-21 2-1 15 22 15-5a988 988 0 0 0 2-1l16-5-15-21 2-1 15 22 17-5-13-22h2l13 21 19-4-13-22h3l12 21 20-5-12-21 2-1 12 22 9-2v1l-9 2 6 13 8-2 1 1-8 2 4 13 8-2 1 1-8 2 4 13 7-2v1l-7 3 3 12 7-2v1l-7 3 3 12 6-2v1l-6 3 1 12 6-2v1l-6 3 1 12 6-2v1l-6 3 1 12Zm-1 1-1-13-12 5 1 13 12-5Zm-13 5-2-12-12 5 2 13 12-6Zm-13 6-2-13-12 5 3 13 11-5Zm-12 6-3-13-12 5 4 13 11-5Zm-12 5-4-12-11 5 5 12 10-5Zm-11 6-5-13-10 5 5 13 10-5Zm-11 6-5-13-10 5 6 13 9-5Zm-10 5-6-12-9 5 6 13 9-6Zm-15-9 9-5-6-13-9 5 6 13Zm10-5 9-6-5-12-10 5 6 13Zm10-6 11-5-5-13-11 5 5 13Zm12-6 11-5-5-13-11 5 5 13Zm12-5 11-5-4-13-12 5 5 13Zm12-6 12-5-3-13-12 5 3 13Zm14-6 12-5-2-12-13 5 3 12Zm13-5 13-5-1-13-14 5 2 13Zm12-19-2-13-14 5 2 13 14-5Zm-15 5-3-12-14 5 4 12 13-5Zm-15 6-3-13-14 5 4 13 13-5Zm-14 5-4-12-13 5 5 12 12-5Zm-13 6-6-13-12 5 6 13 12-5Zm-13 6-6-13-11 5 6 13 11-5Zm-12 5-6-13-10 5 6 13 10-5Zm-11 6-6-13-9 5 6 13 9-5Zm-16-9 9-5-7-13-9 5 7 13Zm10-6 10-5-7-13-10 5 7 13Zm11-6 11-5-6-13-12 5 7 13Zm13-5 12-5-6-13-13 5 7 13Zm13-6 13-5-5-13-14 5 6 13Zm15-5 13-5-4-13-15 5 6 13Zm15-6 14-5-3-12-15 4 4 13Zm15-5 15-5-2-13-16 5 3 13Zm12-19-3-13-16 5 4 13 15-5Zm-17 5-4-13-16 5 5 13 15-5Zm-17 6c-1-5-2-8-5-13l-15 5 6 12 14-4Zm-16 5-6-13-14 5 7 13 13-5Zm-15 6-6-13-14 5 8 13 12-5Zm-14 5-7-13-12 5 8 13 11-5Zm-13 6-7-13-11 5 8 13 10-5Zm-11 5-8-13-9 5 8 13 9-5Zm-18-9 9-5-8-13-9 5 8 13Zm10-6 11-5-8-12-11 5 8 12Zm12-5 12-5-8-13-12 5 8 13Zm13-6 14-5-8-12-13 4 7 13Zm15-5 15-5-7-13-15 5 7 13Zm16-6 16-5-6-12-16 5 6 12Zm18-5 16-5-5-13-17 5 5 13h1Zm17-5 17-5-4-13-17 5 4 13Zm13-19-5-13-19 5 6 12 18-4Zm-20 5-6-13-18 5 7 13 17-5Zm-19 5-6-12-17 4 7 13 16-5Zm-18 6-7-13-16 5 8 13 15-5Zm-16 5-9-13-14 5 9 13 13-5h1Zm-16 6-8-13-13 5 9 13 12-5Zm-13 5-9-13-11 5 9 13 11-5Zm-12 6-9-13-9 5 9 13 9-5Zm-19-9 9-6-9-12-9 5 9 13Zm10-6 11-5-9-13-11 5 9 13Zm12-6 13-5-9-12-13 5 9 12Zm14-5 15-5-9-13-15 5 9 13Zm16-6 16-4-8-13-16 5 8 12Zm18-5 17-5-8-13-17 5 8 13Zm19-5 18-5-7-13-19 5 8 13Zm20-6 18-5-6-12-19 4 7 13Z"/><path d="m17 365-4-7h-1l5 7-4 3 1 1 4-2c27 44 56 85 74 134h1c-18-50-47-91-75-135 39-33 104-40 151-51v-2c-48 11-113 19-152 52Z"/><path opacity=".5" d="m98 18 3-1v2l-3 1-1 9h-1l1-9-6 2a477 477 0 0 0-1 0h-6v8h-1l1-8h-6v8-8l-5-1v8h-1v-8h-5l1 7h-1v-7h-6l1 7h-1v-7l-6 1 1 6h-1l-1-6-7 2 2 6h-1l-1-6-14 7-1-2c6-3 9-5 14-6L44 9l-15 7v-1l14-8-2-14c-6 2-9 5-15 8v-2l15-8-2-14-15 8-1-1 16-9-2-14-15 8v-2l15-8-2-15-15 9v-2l15-8-1-15-15 8v-2l15-8-2-15-14 9-1-2 15-9-1-15-15 9v-2l15-8-2-25 1-1 2 25 10-5-2-25 1-1 2 25 10-6a1611 1611 0 0 0 1-1l10-5a603 603 0 0 0 1-1l9-5-1-26h1l1 26 9-5v-26l1-1v27l9-5v-27l1-1v28l10-5-1-28h2v28l9-5v-28l1-1v28l4-2v2l-4 2-1 18a383 383 0 0 0 3 0l-4 2-1 19 4-2v2l-4 2-2 19 3-2v2l-4 2-2 20 4-2-1 2-3 2-3 20 4-2v3l-4 1-2 20 3-1v2l-4 1-2 20 3-1v2l-3 1-2 19Zm-1 0 2-19-7 2-1 18 6-1Zm-7 1 2-18-6 1-2 18 6-1Zm-6 1 1-18h-6v18h5Zm-6 0V2h-5v17l5 1Zm-6-1V2l-6 1 1 16h5Zm-6 0V3l-6 1 1 15h5Zm-6 0L59 4l-6 1 1 15 6-1Zm-6 1L52 6l-8 2 3 14 7-2ZM44 7l8-3-2-15-8 3 2 15Zm8-3 7-2-1-16-7 2 1 16Zm8-2 6-1-1-17-6 2 1 16Zm6-1 6-1v-17l-6 1V1Zm7-1h5l1-18-6 1V0Zm6 0h6l1-19-6 1-1 18Zm7-1h6l2-20-7 2-1 18Zm7-1 6-1 3-20-8 2-1 19Zm9-23 2-20-7 3-2 19 7-2Zm-8 2 2-19-7 2-2 19 7-2Zm-8 2 2-19-7 2-1 18 6-1Zm-7 1 1-18-6 2-1 17 6-1Zm-7 1 1-17-7 2v16l6-1Zm-7 2v-17l-7 2 1 16 6-1Zm-7 1-1-16-8 3 2 16 7-3Zm-8 3-2-15-8 4 2 15 8-4ZM40-26l8-4-1-15-9 5 2 14Zm9-4 8-3-1-16-8 3 1 16Zm9-4 7-2v-17l-8 3 1 16Zm8-2 7-2v-18l-7 3v17Zm8-2 7-2 1-18-8 2v18Zm7-2 7-2 2-19-8 3-1 18Zm8-2 7-2 2-19-7 2-2 19Zm8-3 7-2 3-20-8 3-2 19Zm10-24 2-19-8 3-2 19 8-3Zm-9 3 2-19-8 4-1 18 7-3Zm-8 3 1-18-7 3-1 18 7-3Zm-8 3 1-18-8 3-1 17 8-2Zm-8 3v-18l-8 4v16l8-2Zm-9 2v-16l-8 4v16l8-4Zm-9 4v-16l-9 5 1 15 8-4Zm-9 4-1-15-10 6 2 14 9-5ZM36-58l10-6-2-15-9 6 1 15Zm11-6 9-5-1-15-9 5 1 15Zm10-5 8-4v-16l-9 4 1 16Zm9-4 8-4v-16l-8 3v17Zm9-4 8-3 1-17-9 3v17Zm9-3 8-3 1-18-8 3-1 18Zm8-4 9-3 1-18-8 3-1 18h-1Zm9-3 9-4 2-19-9 4-2 19Zm11-25 1-18-8 4-2 18 9-4Zm-10 5 2-18-9 4-1 17 8-3Zm-9 4 1-18-9 4v17l8-3Zm-9 4v-17l-9 4v16l9-3Zm-10 4 1-17-9 5v16l8-4Zm-9 4v-16l-10 5 1 15 9-4Zm-10 5-1-15-10 5 1 15 10-5Zm-11 6-1-15-10 5 2 15 9-5ZM33-91l10-6-1-15-10 6 1 15Zm11-6 10-6-1-15-10 6 1 15Zm11-7 9-5v-15l-10 5 1 15Zm10-5 10-5-1-16-9 5v16Zm10-5 9-4v-17l-9 5v16Zm10-5 9-4v-17l-9 4v17Zm10-4 9-4v-18l-9 4v18Zm10-5 9-4 1-18-10 4v18Z"/><path d="m21-119-1-8-1 1 1 8-5 3v1l5-2c4 51 7 100 19 150h1C28-16 25-66 21-117l99-55v-2l-99 55Z"/><path opacity=".5" d="m313 239 3-3 1 1-4 3 3 5-1 1-2-5-8 8 2 5-1 1-2-5-8 7 1 5-1 1-1-5-9 6 1 6h-1l-1-5-10 5 1 6h-1l-1-5-14 5 2 5-2 1-2-6-16 5 2 6h-2l-2-5-19 5 2 5-2 1-2-6-20 5 2 6h-2l-3-6a5915 5915 0 0 1-35 7l35-8-7-13-36 8-1-1 36-8-8-14-37 8-1-1 37-8-9-13-37 8-1-2 37-7-10-12a3045 3045 0 0 0-1-2l-11-11-34 6-1-1 33-6-11-11-32 5-1-1 32-5-11-11-30 4-1-1 30-4-11-11-28 4v-1l27-4a257 257 0 0 1-14-17l16 17 15-1-18-17h2l18 17 14-1-20-16h1l21 15h13a346 346 0 0 1 1 0l11-1-23-14h1l23 14 10-1-25-13h1l25 13 8-1-26-12h1l25 12 6-1a480 480 0 0 1 1-1l5-2 2-2 2 1-2 1 16 6 2-2 2 1-2 2 15 6 2-3 2 1-2 2 15 6 2-2h2l-2 3 14 6 2-2h1l-2 3 13 7 2-3 2 1-3 3 11 8 3-3h1l-3 4 9 8 3-3 1 1-3 3 7 10Zm-1 1-7-10-6 7 6 11 7-8Zm-8 9-6-11-8 6 6 12 8-7Zm-9 7-5-11-8 5 4 13 9-7Zm-10 7-4-12-11 5c3 5 3 7 5 13l10-6Zm-12 6-4-13-14 5 5 13 13-5Zm-15 6-5-13-17 5 5 13 17-5Zm-19 5-5-13-20 5 6 13 19-5Zm-21 6-6-13-21 4 7 13 20-4Zm-28-10 21-5-7-13-21 5 7 13Zm24-5 19-5-7-13-20 5 8 13Zm21-6 17-5-7-12-17 4 7 13Zm19-5 14-5-7-12-15 4c4 5 6 7 8 13Zm16-6 10-5-7-11-11 4 8 12Zm11-5 8-5-8-11-7 5 7 11Zm9-6 7-6-8-9-7 5 8 10Zm8-7 6-7-9-8-6 6 9 9Zm-4-16-11-8-5 5 10 9 6-6Zm-6 7-11-9-5 4 9 10 7-5Zm-7 5-10-9-8 3 10 10 8-4Zm-9 5-10-10-12 4 11 10 11-4Zm-13 5c-3-5-5-7-10-11l-14 4c4 4 7 6 10 11l14-4Zm-15 5-11-12-17 4 11 12 17-4Zm-19 5-11-12-18 4 9 12 20-4Zm-22 5-10-13-20 5 9 12 21-4Zm-31-10 20-4-11-11-20 3 11 12Zm22-4 19-5-12-10-18 3 11 12Zm21-5 17-4-12-10-17 3 12 11Zm19-4 14-4-13-10-14 4 13 10Zm15-4 12-4-13-9-11 3 12 10Zm13-5 8-3-12-9-9 3 13 9Zm8-4 6-4-12-8-5 4 11 8Zm7-5 5-5-12-7-5 5 12 7Zm-9-13-14-6-4 4 13 7 5-5Zm-5 5-14-7-6 3 14 8 6-4Zm-7 4-14-8-8 3 14 8 8-3Zm-9 4-14-8-11 2 13 9 12-3Zm-13 3-14-9-13 3 13 10 14-4Zm-16 4-13-10-16 3 13 10 16-3Zm-18 3-13-10-17 3 12 11 18-4Zm-20 4-12-10-19 3 11 11 20-4Zm-33-9 19-3-12-10-18 3 11 10Zm21-3 18-3-13-9-17 2 12 10Zm20-3 15-3-14-9-15 2 14 10Zm17-3 14-2-15-9-13 2 14 9Zm15-3 11-2-15-8-11 2 15 8Zm12-3 9-2-15-8-9 3 15 7Zm10-3c3-1 4-1 5-3l-14-6-7 2 16 7Zm6-3 5-4-15-6-5 3 15 7Zm-12-11-16-6-4 3 15 7 5-4Zm-5 4-16-7-6 2 16 7 6-2Zm-7 3-16-7-8 1 15 8 9-2Zm-10 2-15-8-10 2 15 8 10-2Zm-12 2-15-8-12 1 14 9 13-2Zm-14 2-14-9-14 2 13 9 15-2Zm-17 2-13-9-16 2 13 10 16-3Zm-18 3-12-10-17 2 11 10 18-2Zm-30-9 16-2-12-10-15 1 11 11Zm18-2 16-2-13-9-15 1 12 10Zm17-2 14-2-14-8-13 1 13 9Zm15-2 13-1-15-8-12 1 14 8Zm14-1 10-1-15-8-10 1 15 8Zm11-2 8-1-16-7-8 1 16 7Zm9-1 6-2-16-7-6 2 16 7Zm7-3 4-2-16-6-4 2 16 6Z"/><path d="m83 176-4-6h-2l5 6-9 2 1 1 8-1c33 42 68 78 94 125h3c-26-48-62-83-95-126l68-3c12-1 25 1 35-5l-2-1c-10 6-23 5-34 5-23 0-45 1-68 3Z"/><path opacity=".5" d="M386-50h5l1 1-6 1 2 6h-1l-2-6-12 1 2 6h-2l-2-6-11 2 1 6h-1l-2-6-11 2 2 6h-1l-2-6-11 3 2 6-1 1-2-7-10 5 2 6h-1l-2-6-9 6 3 5-1 1-3-6-10 9 3 6-1 1-3-5c-4 4-7 6-11 12l3 4-1 1-3-4-19 24-1-1 19-24-7-10-21 26V9l21-26-6-9a625 625 0 0 0 0-1l-5-8-23 27-1-1 23-27-4-8-23 27-1-1 24-27-4-8-24 27v-1l24-27-3-9-24 27v-1l24-27-2-9a1131 1131 0 0 0 0-1l-2-10-24 26v-2l24-25-1-18 1-1 1 18 14-14-1-17 1-1 2 17 13-13-2-16 2-1 2 16 12-10a301 301 0 0 1-1-17l3 16 11-9-2-15 2-1 2 15 11-6-2-15 1-1 2 16 10-5-2-16h2l2 16 10-4-2-16 1-1 2 17 11-3-3-17 1-1 3 18 5-2v1l-5 2 2 10 5-1v1l-5 1 2 11 5-1v1l-5 1 3 11 5-1v2h-5l2 12 6-1v1l-5 1 3 12h5v1h-5l3 13 6-1v2h-5l3 13h6v1l-5 1 4 13Zm-2 0-4-13-12 1 4 13 12-1Zm-13 2-4-14-12 2 4 13 12-1Zm-13 1-4-13-11 2 3 13 12-2Zm-13 3-4-14-10 3 4 14 10-3Zm-12 3-3-13-10 4 4 13 9-4Zm-10 5-4-13c-4 1-6 3-10 6l4 12 10-5Zm-11 6-4-12-11 10 5 11 10-9Zm-11 10c-2-4-4-6-5-11l-12 13 6 10 11-12Zm-18 1 12-13-5-9-12 13 5 9Zm13-14 11-10-4-11-11 11 4 10Zm12-11 10-7-3-12-11 8 4 11Zm11-7 10-5-3-12-10 5 3 12Zm11-5 11-3-3-13-11 4 3 12Zm12-3 12-3-4-12-11 2 3 13Zm13-3 12-1-4-13-12 2 4 12Zm13-1 12-2-4-13-12 2 4 13Zm8-16-3-12-12 1 3 12 12-1Zm-13 2-3-13-12 2 3 12 12-1Zm-13 1-3-12-11 3 3 12 11-3Zm-13 3-2-12-11 4 3 11 10-3Zm-11 4-3-12-10 6 3 10 10-4Zm-11 5-3-10-12 9 4 9 11-8Zm-12 9-4-9-12 11 4 9 12-11Zm-13 13-5-9-13 14 5 8 13-13Zm-18 4 13-14-4-8-13 14 4 8Zm14-16 13-11-4-9-12 12 3 8Zm14-13 11-9-2-9-12 10 3 8Zm13-9c4-3 6-5 10-6l-2-11-11 7 3 10Zm11-7 10-3-2-11c-4 1-6 1-10 4l2 10Zm12-3 11-3-3-11-11 3 3 11Zm12-3 11-2-2-12-12 3 3 11Zm13-2 11-2-3-12-11 2 3 12Zm8-15-2-11-12 2 3 11 11-2Zm-13 2-2-11-11 2 2 11 11-2Zm-12 3-2-11-11 3 2 10 11-2Zm-12 3-2-11-11 5 2 9 11-3Zm-12 4-2-10-11 8 2 9 11-7Zm-12 8-2-9-12 10 2 9 12-10Zm-13 11-3-9-13 13 3 8 13-12Zm-14 14-3-9-14 15 3 8 14-14Zm-17 5 13-15-2-8-14 14 3 9Zm15-16 13-13-3-8-13 13 3 8Zm14-14 12-10-2-9-12 11 2 8Zm14-11 11-8-2-9-11 8 2 9Zm12-8 11-5-2-10-11 5 2 10Zm12-5 11-3-2-11-11 4 2 10Zm12-4 11-2-2-11-11 3 2 10Zm12-2 11-3-2-11-11 3 2 11Zm9-15-2-10-11 2 2 11 11-3Zm-12 3-2-10-11 3 2 10 11-3Zm-12 3-2-10-10 4 1 9 11-3Zm-12 4-1-10-11 6 1 9 11-5Zm-12 6-2-9-11 9 1 8 12-8Zm-13 9-2-8-12 10 2 9 12-11Zm-14 12-2-9-13 13 2 9 13-13Zm-15 14-2-9-14 14 2 9 14-14Zm-16 4 14-14-2-9-13 14 1 9Zm16-15 13-13-2-8-13 12 2 9Zm14-14 13-10-2-9-12 10 1 9Zm14-11 12-9-1-9-12 9 1 9Zm13-10 11-6-1-9-11 7 1 8Zm13-6 10-4-1-10c-5 2-7 2-11 5l2 9Zm11-4 11-3-2-11-10 4 1 10Zm12-4 11-3-2-10-11 3 2 10Z"/><path d="M240-82v-7l-2 2v6l-8 8v2l8-9c3 39 17 66 43 95l1-2c-26-28-39-56-42-94 38-38 72-69 124-85v-1c-52 16-87 47-124 85Z"/><path opacity=".5" d="m166 162 2-1 2 1-2 1-5 1 7 3h-1l-7-3h-5l7 4h-1l-7-4h-6l6 4h-1l-6-4h-8l6 4h-1l-6-4h-10l6 4h-1l-6-4-11-1 5 5h-1l-5-5h-12l5 5h-2l-4-5-13 1 4 5h-2l-4-5-23 2-1-1 23-2-7-11-21 2-1-1 21-2-7-11-19 1v-1l18-2-5-11-17 1-1-1 17-1-4-12-16 1v-1l15-2-3-12-14 1v-1l14-2-3-13-13 3v-2l13-2-2-13c-5 0-8 1-13 3v-2l12-3-1-13c-5 0-7 1-13 3v-1l13-4-3-24h1l2 24 7-1-3-25h1l2 25h6l-3-25h1l3 25 4 1-2-26h1l2 26 4 2-2-27h1l2 27 4 1a324 324 0 0 1 0 1l5 1-1-29h1v29h5a390 390 0 0 1 1 0h5l1-30h1l-1 30 3-1v2l-3 1v17l3-1v2l-2 1c0 6 0 9 2 15l2-1 1 2h-3l6 13h2l1 1-2 1 7 11h2l1 1-2 1 9 10h2l2 1h-2l11 9h2l1 1h-2l13 9 2-1 2 1h-2l14 8Zm0 0-14-7h-5l14 8 5-1Zm-5 1-14-8h-6l14 9 6-1Zm-6 1-14-9h-6l13 8 7 1Zm-8-1-13-8-7-1 12 9h8Zm-9 0-12-9-9-1 12 10h9Zm-10-1-12-9-9-1 10 10h11Zm-12 0-10-10H95l9 10h12Zm-13 0-9-10H82l8 11 13-1Zm-22-11h12l-8-11H74l7 11Zm13 0h11l-9-11H86l8 11Zm12 0 9 1-10-11-8-1 9 11Zm10 1 9 1-12-10-7-1 10 10Zm9 1 8 1-12-10-7-1 11 10Zm8 1h6l-12-9-6-1 12 10Zm7 0h5l-13-8-5-1 13 9Zm6 0h4l-13-9-4 1 13 8Zm-10-10-12-9h-4l11 10 5-1Zm-5 1-12-10-4-1c4 5 6 7 11 10l5 1Zm-6-1-10-10-5-1 10 10 5 1Zm-6-1-10-10-6-2 10 11 6 1Zm-7-1-9-11-7-1 9 10 7 2Zm-8-2-9-11-7-1 8 11 8 1Zm-9-1-8-11-9-1 7 11 10 1Zm-11-1-7-11h-9l6 11h10Zm-17-13 10 1-6-12-8-1 4 12Zm11 1 8 1-6-12-8-1 6 12Zm9 1 7 1-7-12-7-1 7 12Zm8 1 7 2c-4-5-6-7-8-12l-6-1 7 11Zm7 2 6 2-9-12-5-1 8 11Zm6 2 5 1-9-11-4-1 8 11Zm6 1 4 1-9-11-4-1 9 11Zm5 1h4l-10-10-4-1 10 11Zm-6-12-8-11-4-1 7 12h5Zm-5 0c-4-4-5-7-8-12l-4-1 8 12 4 1Zm-5-1-7-12-4-2 7 12 4 2Zm-5-2-7-12-4-2 6 12 5 2Zm-5-2-7-12-5-2 6 12 6 2Zm-7-2-6-12-5-2c1 5 2 8 5 13l6 1Zm-7-2-5-12-7-1 5 13h7Zm-8-1-5-12h-7l3 12h9ZM58 98l8 1-3-14h-7l2 13Zm9 1 6 1-3-14h-7l4 13Zm7 1 6 1-5-13-5-1 4 13Zm7 1 5 2c-3-5-4-7-5-13l-5-2c2 6 2 8 5 13Zm5 3 5 2-6-14-4-2 5 14Zm5 2 4 1c-2-5-4-7-5-13l-4-2 5 14Zm5 2 4 1-6-13-4-2 6 14Zm4 1h4l-5-13h-5l6 13Zm-2-14-2-15h-5c0 6 1 9 3 14l4 1Zm-4-1-4-14-4-2 4 15 4 1Zm-5-1-4-15-3-1 3 14 4 2Zm-4-2-4-15-4-1 4 14 4 2Zm-5-2-3-15-5-1 4 14 4 2Zm-5-2-3-15-5-1 3 14 5 2Zm-6-2-3-14-5-1 2 14 6 1Zm-7-1-2-14-7 1 2 13h7Zm-9-15h7l-2-14h-6l1 14Zm7 0h6l-2-14h-5l1 14Zm7 1 5 1-2-15-5-1 2 15Zm5 1 4 2-2-16-4-1 2 15Zm5 2 4 2-2-16-4-1 2 15Zm4 2 4 2-1-16-5-2 2 16Zm5 2 4 1-1-17h-5l2 16Zm4 1h6l-1-17h-5l1 17h-1Z"/><path d="m41 41-1-7h-1l1 7-4 3v1l5-2c6 46 11 87 36 127h2C53 130 48 89 41 43c21-7 37 0 58-3v-2c-21 3-37-3-58 3Z"/><path opacity=".5" d="m314 375 4-4v2l-5 3v7h-2l1-6-10 8-1 6-1 1v-6l-10 7-1 6-1 1 1-6-11 7a347 347 0 0 0-1 1l-11 6-1 6-1 1v-6l-10 6-1 6h-1v-5l-11 5v6h-1v-5l-11 5a266 266 0 0 0-1 1c-5 2-7 2-11 5v5l-2 1 1-6-19 8v-1l19-8 1-13-20 8v-1l20-8 1-13-22 8v-1l22-8v-13l-23 8v-1l24-8-1-13-25 8v-1l25-8v-13l-27 8-1-1 27-8-1-13-29 8-1-1 29-8-2-13a2915 2915 0 0 1-1-1l-4-13-32 8v-1l32-8-9-22h2l9 21 18-5c-2-8-3-13-7-21l2-1c4 9 5 13 7 22l17-5c-1-9-2-13-5-22h2c3 8 4 13 5 21l15-5-4-21 2-1 4 22 12-5-3-22h1l3 21 10-6-3-21h1l3 20 10-7-4-20 1-1 4 20 9-8-4-19 1-1 4 19 8-8c-1-8-1-12-4-19l1-1c3 7 3 11 4 19l4-4v1l-3 4 1 12a252 252 0 0 0 4-3l-4 4v12l4-4v1l-4 4v12l4-4v2l-4 4-1 12 4-4v1l-4 4-2 13 5-4v1l-5 4-1 13a537 537 0 0 0-1 2l-1 13a413 413 0 0 0-1 1l-1 14Zm-2 1 2-14-10 8-2 14 10-8Zm-11 8 1-13-10 8-2 13 11-8Zm-12 9 2-13-11 7-2 13 11-7Zm-12 7 2-13-11 7-2 13 11-7Zm-12 8 1-13-11 6-1 13 11-6Zm-12 6 1-12-11 5-2 13 12-6Zm-13 6 2-12-11 5-2 13 11-6Zm-12 6 1-12-11 5-1 12 11-5Zm-10-9 12-5 1-12-12 5-1 12Zm13-5 11-5 2-13-11 5-2 13Zm12-6 11-6 2-12-11 5-2 13Zm13-6 11-7 2-12-11 6-2 13Zm12-7 11-7 2-13-11 7-2 13Zm12-8 11-7 2-13-11 8-2 12Zm12-8 11-7 2-13-11 8-2 12Zm12-8 10-8 2-13-10 8-2 13Zm12-23 2-13-10 9-2 12 10-8Zm-11 9 2-12-11 8-2 12 11-8Zm-12 9 2-13-11 8-2 12 11-7Zm-12 8 2-12-11 6-2 13 11-7Zm-12 8 2-13-11 6-2 13 11-6Zm-12 6 2-12-11 6-3 12 12-6Zm-13 7 2-13-12 5-1 13 11-5Zm-12 5 1-12-13 5-1 12 13-5Zm-12-9 13-5 1-12-14 5v12Zm15-5 11-5 2-13-12 5-1 13Zm13-6 11-5 2-13-11 6-2 12Zm12-6 11-6 2-12-11 6-2 12Zm13-7 10-7 2-12-10 7-2 12Zm12-8 10-7 2-12-10 7-2 12Zm11-8 11-8 1-12-10 8-2 12Zm12-9 10-8 2-13-10 9-2 12Zm12-22 1-12-10 8-1 12 10-8Zm-11 9 1-12-10 8-2 12 11-8Zm-12 9 2-12-11 8-1 12 10-8Zm-11 9 1-12-10 6-2 13 11-7Zm-12 7 1-12-11 6-1 12 11-6Zm-13 7 2-12-12 5-1 12 11-5Zm-12 6 1-13-14 5v13l13-5Zm-15 5v-12l-15 5 1 12 14-5Zm-15-9 15-5v-12l-17 5 2 12Zm17-5 14-5v-13l-15 5 1 13Zm15-6 12-5 2-12-13 5-1 12Zm14-5 11-6 1-13-11 6-1 13Zm12-7 10-7 1-12-10 7-1 12Zm11-8 11-7 1-12-10 7-2 12Zm12-8 10-8 1-12-10 8-1 12Zm11-9 10-9v-12l-9 9-1 12Zm10-22v-12l-9 9v12l9-9Zm-10 10v-12l-10 8v12l10-8Zm-11 9v-12l-10 7v12l10-7Zm-11 8v-12l-10 6-1 12 11-6Zm-12 7 1-12-11 5-1 13 11-6Zm-12 6v-12l-14 5 1 12 13-5Zm-15 6v-13l-16 5 1 13 15-5Zm-16 5-2-12-17 5 2 12 17-5Zm-20-9 18-5-3-12-19 4 4 13Zm19-5 17-5-2-13-17 5 2 13Zm18-6 14-5-1-12-15 5 2 12Zm16-5 11-6v-12l-12 5 1 13Zm12-6 10-7v-12l-10 6v13Zm11-7 10-8v-12l-10 8v12Zm11-9 10-8-1-11-9 8v11Zm11-8 9-9-1-12-9 9 1 12Z"/><path d="m182 310-3-7h-3l4 8-11 2v2l12-3c19 44 23 85 23 132h1c0-47-3-89-22-132 53-13 101-22 139-63l-1-2c-37 42-86 51-139 63Z"/><path opacity=".5" d="m224-80 6-7v2l-6 6v6l-2 1v-5l-14 14v6l-2 2 1-7-14 15-1 6-1 2v-7l-14 14v7l-2 2 1-8-14 13v7l-2 2 1-8-13 11-1 8-1 1 1-8-12 8v8l-2 1 1-9-10 6-1 9-1 1 1-9-9 4v9h-1l1-8-13 4v-2l13-4 2-20-13 5v-2l13-6 3-20-13 6v-2l14-6 3-21-14 7v-3l14-6 3-20-15 6 1-2 14-7 3-20-15 8v-3l15-7 3-20-15 8v-2l15-8 2-19-16 8 1-2 15-8 1-18-15 8v-2l16-8v-29l1-1v29l9-6a347 347 0 0 0 2 0l10-6v-29l1-1v29l10-7v-28l1-1v29l11-7-1-28h1l1 27 11-7c0-11 0-17-2-27h2l1 27 11-7-2-27h1l2 26 10-6-3-26h1c2 9 3 14 3 25l10-6-3-25 1-1c2 10 3 15 3 25l5-3v2l-4 3v16l5-3v2l-5 3v16l5-3v2l-5 3v17l5-4v2l-5 4-1 16 5-4v2l-5 4-1 16 5-5v2l-6 5-1 15 6-5v2l-6 5v15l6-6v2l-7 6v14Zm-2 1 1-14-14 13-1 15 14-14Zm-15 16 1-15-14 13-1 16 14-14Zm-16 15 1-16-13 13-2 17 14-14Zm-15 15 1-17-13 12-2 18 14-13Zm-15 14 2-18-12 9-3 20 13-11ZM147-7l2-20-11 8-2 20 11-8Zm-12 8 2-20-10 6-2 20 10-6Zm-11 7 2-20-9 4-2 20 9-4Zm-7-18 9-5 3-20-9 5-3 20Zm10-5 10-6 3-20-10 5-3 21Zm12-7 11-7 3-20-11 7-3 20Zm12-8 12-9 3-20-12 9-3 20Zm14-11 13-11 2-18-13 10-2 19Zm14-12 14-13 1-17-13 12-2 18Zm15-14 14-13 1-16-13 12-2 17Zm15-14 14-14 1-14-14 12-1 16Zm15-30 1-16-13 11-1 17 13-12Zm-15 13 2-17-13 11-2 18 13-12Zm-15 13 2-17-12 10-3 19 13-12Zm-14 13 2-19-12 9-3 20 13-10Zm-14 11 3-20-12 8-3 21 12-9Zm-13 10 3-21-11 7-3 21 11-7Zm-12 7 3-20-10 5-3 21 10-6Zm-11 7 3-21-9 5-3 20 9-4Zm-6-18 9-5 3-21-9 5-3 21Zm10-6 10-6 4-20-11 6-3 20Zm12-6 10-7 3-21-10 7-3 21Zm12-8 11-8 3-20-11 7-3 21Zm13-9 12-9 2-20-12 9-2 20Zm13-10 13-10 2-19-12 9-3 20Zm14-12 13-10 2-18-13 10-2 18Zm14-12 13-11 1-16-12 10-2 17Zm14-29 1-16-11 9-2 17 12-10Zm-13 11 1-17-12 8-2 19 13-10Zm-14 11 2-19-12 9-2 19 12-9Zm-13 10 2-20-11 8-3 20 12-8Zm-14 9 3-20-11 8-3 20 11-8Zm-12 9 3-21-11 7-3 21 11-7Zm-12 7 3-20-10 6-3 20 10-6Zm-11 7 3-21-10 6-3 20 10-5Zm-7-18 10-5 3-20-10 6-3 19Zm11-5 10-6 3-20-10 6-3 20Zm11-7 11-7 3-20-11 7-3 20Zm12-8 12-7 2-20-11 8-3 19Zm13-8 11-8 3-19-12 7-2 20Zm13-9 11-8 2-18-11 7-2 19Zm13-9 11-8 2-18-12 8-1 18Zm13-9 11-9 1-17-11 8-1 18Zm12-28v-16l-11 7v17l11-8Zm-12 9v-18l-11 7-1 19 12-8Zm-13 9 1-19-11 7-1 19 11-7Zm-12 8 1-19-11 7-2 19 12-7Zm-13 8 2-19-11 7-2 19 11-7Zm-12 8 2-19-11 7-2 19 11-7Zm-12 8 2-20-10 6-2 20 10-6Zm-11 6 2-19-10 5-2 20 10-6Zm-8-16 10-5 1-19-9 6-2 18Zm11-6 10-6 2-18-11 6-1 18Zm11-7 11-6 1-18-10 6-2 18Zm12-7 11-7 1-18-11 7-1 18Zm12-8 11-7 1-18-11 7-1 18Zm12-8 11-7 1-17-11 6-1 18Zm13-8 10-6v-17l-10 6v17Zm11-7 11-7-1-16-10 6v17Z"/><path d="M127-177v-10l-2 1 1 9-6 3v2l6-3c-2 68-16 134-22 202l1-1c6-67 20-134 22-202 35-20 69-42 104-63v-1c-35 21-69 43-104 63Z"/><path opacity=".5" d="m387 141 3-3 1 2-3 2a255 255 0 0 1-1 1l-7 6 4 6v1l-4-6-7 8 4 5-1 1-4-5-6 9 3 5v1l-4-5-7 9 4 5-1 1-4-5-6 10 3 4v2l-4-5-6 10 3 4-1 1-3-4-7 10 3 4v1l-3-4-7 9 3 4-1 2-3-5-11 15-1-1 11-15c-2-4-4-6-8-9l-10 14-1-1 10-14-9-8-10 14-1-1 9-14-11-7-9 13-2-1c4-4 6-7 9-13l-13-6-8 12h-2l9-13-14-6-9 12h-2l9-12-15-6-9 12-1-1 8-11-16-5-8 11-2-1 9-11-16-5-9 11-2-1 9-10-26-8v-1l27 8 6-9-26-8 1-1 25 8 7-11-25-8 1-1 25 7 8-12-24-8 1-2 24 8 8-14-23-8 1-2 23 9 9-15-22-10 1-2 22 10 10-15-21-11 1-2 21 11 9-15-19-12 2-2 18 12 10-15-17-13 1-2 17 14 5-6 1 1-4 6 11 9 4-6 1 1-4 6 12 9 4-5 1 1-4 5 12 10 4-5 1 2-3 4 11 11 3-4 2 1-3 4 11 11 3-3 1 1-3 4 11 11 3-3 1 2-2 3 10 12 3-3 1 2-3 3 10 13Zm-1 0-10-13-6 8 9 12 7-7Zm-7 8-10-12-7 8 10 12 7-8Zm-8 9-9-12-7 10 10 10 6-8Zm-7 9-10-10-6 10 9 10 7-10Zm-7 11-10-10-6 10 9 10 7-10Zm-8 11-9-10-6 11 9 9 6-10Zm-7 11-9-9-6 10 8 9 7-10Zm-7 11-9-9-6 9 8 9 7-9Zm-16-1 6-9c-3-4-6-5-10-8l-6 9 10 8Zm7-10 6-10-10-9-6 11 10 8Zm7-11 6-11-10-8-7 10 11 9Zm7-12 6-10-10-9-7 11 11 8Zm7-11 6-10-10-10-7 11 11 9Zm7-11 7-10-11-10-7 10 11 10Zm7-11 7-9-11-11-6 10 10 10Zm8-9 6-8-10-12-7 8 11 12Zm-5-22-12-11-6 9 11 11 7-9Zm-8 10-11-11-7 10 12 10 6-9Zm-7 11-12-10-6 11 11 9 7-10Zm-8 11-11-9-7 11 12 9 6-11Zm-7 12c-4-4-7-5-12-8l-6 11 12 8 6-11Zm-7 12-12-8-6 11 12 7 6-10Zm-7 12-11-8-6 10 12 8 5-10Zm-6 11-12-7-6 9 12 7 6-9Zm-19 1 6-9-13-7-6 10 13 6Zm6-10 6-11-13-6-6 10 13 7Zm7-12 6-11-13-7-6 12 13 6Zm7-12 6-11-13-8-6 12 13 7Zm7-13 6-11-12-8-7 12 13 7Zm7-12 7-11-12-10-7 12 12 9Zm8-13 7-10-12-10-7 11 12 9Zm7-11 7-10-11-11-8 11 12 10Zm-6-22-11-11-8 12 12 9 7-10Zm-8 12-12-10-8 13 13 8 7-11Zm-8 12-12-8-8 13 13 7 7-12Zm-8 14-13-8-7 13 14 7 6-12Zm-7 13-14-7-7 13 14 6 7-12Zm-7 13-14-6-7 12 14 6 7-12Zm-7 13-15-6-6 11 15 6 6-11Zm-7 12-14-6-6 9 14 6 6-9Zm-21 3 5-10-15-5-6 9 16 6Zm6-11 6-11-15-5-6 11 15 5Zm7-12 6-12-14-5-7 12 15 5Zm7-13 7-12-14-7-8 13 15 6Zm8-14 7-13-14-7-8 14 14 6h1Zm8-14 7-13-13-8-8 14 14 7Zm8-14 8-13-13-9-8 14 13 8Zm9-14 7-12-12-10-8 13 13 9Zm-6-23-12-9-9 14 13 8 8-13Zm-9 14-13-8-9 14 13 8 9-14Zm-9 15-14-7-8 15 13 6 9-14Zm-9 16-14-7-8 14 14 6 8-13Zm-9 15-14-6-8 13 15 6 7-13Zm-8 14-15-5-7 12 15 5 7-12Zm-8 13-15-5-6 11 15 5 6-11Zm-7 12-15-4-6 9 16 5 5-10Zm-23 4 6-9-16-5-6 10 16 4Zm7-10 6-11-15-5-7 11 16 5Zm7-12 7-13-14-5-8 13 15 5Zm8-14 8-14-14-5-9 14 15 5Zm9-15 8-15-13-6-9 15 14 6Zm9-16 9-15-13-7-9 16 13 6Zm10-16 9-15-12-7-10 15 13 7Zm10-16 9-14-12-9-9 15 12 8Z"/><path d="m189 165-9-3h-1l9 3-3 3h2l3-2c42 14 110 26 133 71l1-1c-23-45-91-56-134-70 37-39 61-94 91-137l-1-1c-19 26-36 54-53 82-12 18-23 39-38 55Z"/><path opacity=".5" d="m28 32 4-3 1 2-4 2 1 6h-1l-1-5-9 4 1 6h-1l-1-6-8 4 1 6-1-5-8 3 1 6H2v-6l-7 3v7l-1-6-6 3v6l-1-6-6 3v6l-1-6-6 3 1 6h-1l-1-6-6 4 1 5-1 1v-6l-11 5v-1l11-6-2-13-11 5v-1l10-6-2-13-11 5v-1l11-6-3-14-11 6v-1l11-6-3-14a403 403 0 0 0 0-1l-3-14-12 6v-1l12-7-3-13-12 6-1-1 13-7-3-13-13 7v-2l13-7-3-14-14 8v-2l13-7-5-23h1l5 22 8-4-5-22 1-1 5 23 7-4a1189 1189 0 0 0 1 0l7-4-3-24h1l3 23 8-3-4-24 1-1 3 24 8-4-3-24h1l3 24 7-4-2-25h1l2 24 8-4-2-25h1l2 24 8-4-2-25h1l2 24 4-2v2l-3 2 1 15 3-2 1 2-4 2 1 15 4-3v2l-4 2 1 15 4-2v2l-4 2 2 14 4-2v2l-4 2 2 15 3-2 1 1-4 2 2 14 4-2v2l-4 2 3 14 4-2v1l-4 2 3 14Zm-1 0-3-13-8 4 3 13 8-4Zm-9 5-3-13-7 3 2 14 8-4Zm-9 4L7 28l-7 3 2 14 7-4Zm-8 4-2-13-6 3 2 13 6-3Zm-7 3-2-13-6 3 1 13 7-3Zm-7 4-2-14-6 3 2 13 6-2Zm-7 3-2-14-6 3 2 14 6-3Zm-7 3-2-14-6 4 2 13 6-3Zm-8-12 6-3-2-14-6 3 2 14Zm7-3 6-3-2-14-6 3 2 14Zm7-4 6-2-2-14-6 3 2 13Zm6-3 7-3-2-13-7 3 2 13Zm7-3 7-3-2-14-7 3 2 14Zm8-3 7-4-3-13-7 3 3 14Zm8-4 7-4-3-14-7 4 3 14Zm8-4 8-5-3-14-8 5 3 14Zm5-20-2-14-8 4 2 14 8-4Zm-9 5L10-8 3-4l2 15 7-4Zm-8 4L2-3l-7 3 2 14 7-3Zm-8 4L-6 1l-6 3 2 14 6-3Zm-7 3-2-14-6 3 2 14 6-3Zm-7 3-2-14-6 3 2 14 6-3Zm-6 4-3-14-6 3 3 13 6-2Zm-7 3-3-14-6 3 3 14 6-3Zm-9-12 6-4-2-13-7 3 3 14Zm7-4 6-3-2-14-7 3 3 14Zm7-3 6-3-2-14-7 3 3 14Zm7-3 6-3-2-15-7 3 3 15Zm6-4 7-3-2-14-7 3 2 14Zm8-3 7-4-2-14-7 3 2 15Zm7-4 8-4-2-15-7 4L2-5Zm9-5 8-4-2-14-8 4 2 14Zm6-20-2-15-8 5 2 14 8-4Zm-9 5L7-40l-8 4 2 15 7-4Zm-8 4-2-15-7 4 2 15 7-4Zm-8 4-2-15-7 4 2 14 7-3Zm-7 4-2-15-7 4 2 14 7-3Zm-8 3-2-14-6 3 2 14 6-3Zm-7 4-2-15-7 4 3 14 6-3Zm-7 3-2-14-7 3 3 14 6-3Zm-9-12 6-3-2-14-7 3 3 14Zm7-4 7-3-2-14-7 3 2 14Zm8-3 6-4-2-14-7 3 3 15Zm7-4 7-3-2-15-7 4 2 14Zm7-4 7-3-1-15-8 4 2 14Zm8-4 7-3-1-15-8 4 2 14Zm8-4 7-4-1-14-8 4 2 14Zm8-4 8-4-1-15-8 4 1 15Zm7-21-1-15-8 5 1 14 8-4Zm-9 5L4-73l-8 4 1 15 8-4Zm-9 4-1-14-7 4 1 14 7-4Zm-8 5-1-15-7 4 1 14 7-3Zm-7 4-2-15-7 4 2 14 7-3Zm-8 3-2-14-7 4 2 14 7-4Zm-8 4-2-14-7 4 2 14 7-4Zm-7 4-3-14-7 4 3 14 7-4Zm-11-11 8-4-3-14-7 4 3 14h-1Zm9-5 7-3-3-14-7 3 3 14Zm8-4 7-3-2-15-8 4 3 14Zm7-4 8-3-2-15-8 4 2 14Zm8-4 8-4-2-14-7 4 1 14Zm8-4 8-4-1-15-8 4 1 15Zm9-4 8-5-2-14-8 4 2 15Zm8-5 9-5-1-15-9 5 1 15Z"/><path d="m-68-71-2-7-1 1 2 7-5 3v1l5-3a1473 1473 0 0 0 1-1l83-44v-1l-83 44Z"/><path opacity=".5" d="m265 25 5-7 1 1-5 7 4 4-1 2-5-4-11 17 4 3-1 2-5-3-11 16 5 3-1 2-5-3-11 17 5 2-1 2-5-2-11 16 6 2-1 2-6-3-9 15a359 359 0 0 0 5 4l-6-3-9 13a396 396 0 0 0-1 2l-8 11 7 2-1 1-7-2-6 9 6 2v1l-7-3-9 9-2-1 9-8-14-6-9 7-2-1c3-1 5-2 9-7l-13-7-9 6-1-1 9-5-12-9-8 5-2-1c3-1 4-1 9-5l-9-9-9 3-1-1c3-1 5-1 9-4l-7-11-9 3-1-1 10-4-4-13c-5 3-8 3-11 4l-1-2 12-3-2-16-12 4v-2c4-1 7-1 12-4V56l-12 4v-2l12-4a400 400 0 0 1 1 0l8-4 2-31 1-1-2 31 11-6 1-31 2-1c-2 10-2 21-2 31l12-10 1-29 1-1-1 28 13-12a280 280 0 0 1 3-29l-1 27 13-14 1-25 2-2-1 25 14-15 1-24 1-2v24l15-16-1-22 2-2v22l15-16-1-20 2-2v20l7-7v2l-6 7 1 11 6-8 1 1-7 8 2 10 7-8v1l-7 8 3 9 7-8v1l-6 8 4 8 6-7h1l-7 8 5 8 6-8 1 1-7 8 6 8 6-8 1 1-6 8 7 8 6-8v1l-5 8 9 7Zm-2 2-9-8-12 18 10 7 11-17Zm-13 19-9-7-13 17 11 7 11-17Zm-12 19-11-7-12 17 12 6 11-16Zm-13 18-11-6-11 17 12 5 10-16Zm-11 18-12-6-11 15 13 5 10-14Zm-11 16-13-5-9 13 13 5 9-13Zm-10 14-13-5-9 11 15 5 7-11Zm-8 12-14-5-8 8 15 6 7-9Zm-23 2 7-8-13-6-7 8 13 6Zm8-9 8-11-12-5-9 10 13 6Zm9-12 10-13-12-6-10 13 12 6Zm11-14 10-15-11-6-11 15 12 6Zm11-17 12-16-11-7-11 17 10 6Zm13-18 12-18-9-6-13 18 10 6Zm13-19 13-18-9-7-13 18 9 7Zm14-20 13-17-8-8-13 18 8 7Zm5-26-6-8-14 18 6 8 14-18Zm-16 20-6-7-14 18 7 7 13-18Zm-14 20c-4-2-5-4-8-7l-13 18 8 7 13-18Zm-15 20-8-7-13 17 9 6 12-16Zm-13 18-9-6-12 15 10 6 11-15Zm-12 17-10-7-11 13 11 7 10-13Zm-11 14-11-7-9 10 11 7 9-10Zm-10 11-11-7-8 7 11 8 8-8Zm-20-1 8-7-9-9-8 6 9 10Zm9-8 9-10-8-8-10 9 9 9Zm10-11 11-13-8-7-11 12 8 8Zm12-14 12-15-7-8-13 15 8 8Zm13-17 13-17-6-8-14 17 7 8Zm15-19 13-18-5-8-14 19 6 7Zm15-20 14-18-5-8-14 18 5 8Zm16-20 14-19-5-8-14 19 5 8Zm9-28-4-8-15 18 4 9 15-19Zm-16 21-4-9-15 18 4 9 15-18Zm-17 20-4-9-14 18 4 10 14-19Zm-15 20-5-9-14 17 5 10 14-18Zm-16 19-4-10-13 15c1 5 2 7 5 10l12-15Zm-14 17-5-10-12 12 6 10 11-12Zm-12 13-6-10-10 9 6 10 10-9Zm-11 10-6-11-9 5 7 12 8-6Zm-15-7 8-5-3-13-9 5 4 13Zm9-6 11-8-4-13-10 8c1 6 1 9 3 13Zm12-9 12-13-3-12-12 12 3 13Zm13-14 13-15-3-11-13 14 3 12Zm15-17 14-16-3-11-14 16 3 11Zm15-18 15-18-3-10-15 17 3 11Zm17-20 14-18-3-10-15 18 4 10Zm16-20 15-18-3-9-15 17 3 10Zm12-28-3-10-14 17 2 10 15-17ZM210-8l-2-11-15 17 2 12 15-18Zm-16 20-2-12-15 17 2 12 15-17Zm-17 19-1-13-14 16 1 13 14-16Zm-15 17-2-13-13 14 2 13 13-14Zm-15 16-1-14-13 11 2 14 12-11Zm-13 13-2-15-10 8 1 15 11-8Zm-12 8-1-15-9 5 2 15 8-5Zm-10-12 9-5-1-17-8 5v17Zm10-5 10-7V44l-11 7 1 17Zm11-9 12-10V33l-12 11v15Zm14-12 13-13-1-15-13 13 1 15Zm14-15 14-15V3l-14 15v14Zm16-17 14-16-1-13-14 16 1 13Zm16-18 15-17-1-12-15 16 1 13Zm16-19 15-17-1-11-15 17 1 11Z"/><path d="m104 37 1-11-1 1-1 10-4 1v2l4-1c-1 28-3 56 13 80 15 22 39 34 63 43h1c-24-10-48-21-63-43-17-24-14-53-13-80 52-17 90-73 126-110v-2c-36 38-74 92-126 110Z"/><path opacity=".5" d="m424 300 3-2v2l-3 2v7h-1v-7l-7 4-1 8h-1l1-7-9 5v7h-1v-7l-9 6-1 7-1 1 1-8-11 7v7l-2 1 1-7-11 7v7h-2l1-6-11 7v7l-1 1v-7l-10 8-1 6-1 1v-6l-10 8-1 6-1 1 1-6-18 13v-1l18-14 1-14-17 14v-2l18-14 1-13-17 14v-1l17-15 1-13-16 15v-2l17-15v-13l-16 15v-1l17-15v-13a545 545 0 0 1 0-1v-12l-16 15v-1l16-16-2-12-14 16v-1l14-16-2-11-14 15v-1l14-16c-2-7-3-11-7-17l1-1c4 6 5 10 7 17l8-9c-2-8-4-11-8-18v-1c5 7 6 10 9 18l7-10c-2-7-4-11-9-18l1-1c5 7 6 10 9 18l8-10c-3-7-5-11-10-17v-2l10 18 8-9-11-18 1-1 11 18 7-8-11-19v-1c6 7 8 11 12 19l7-8c-4-8-6-12-12-20l1-1 12 20 8-6-13-21v-1c6 8 9 12 13 21l8-5-14-22 1-1 13 22 3-2 1 2-3 2 7 13 2-2 1 2-3 2c3 5 4 8 5 13l3-1 1 1-3 2 3 13 3-1 1 1-3 2 1 14 3-1 1 1-3 2v15l3-2v2l-3 1 1 16 2-2v2l-3 2v15l3-1v1l-3 2-1 16Zm-1 0 1-16-7 5-1 16 7-5Zm-8 5 1-16-9 5-1 16 9-5Zm-10 5 1-16-9 6-1 16 9-6Zm-10 7v-16l-10 6-1 16 11-6Zm-12 7 1-16-11 8-1 15 11-7Zm-12 8 1-15-10 8-2 14 11-7Zm-12 8 1-15-10 9-1 14 10-8Zm-11 9 1-14-10 8-2 14 11-8Zm-9-8 10-8 1-14-10 9-1 13Zm11-9 11-8 1-15-11 9-1 14Zm12-9 10-8 1-15-10 8-1 15Zm11-9 11-7v-16l-10 8-1 15Zm12-8 10-7 1-15-11 7v15Zm12-8 9-5 1-16-10 6v15Zm10-6 9-5v-15l-8 4-1 16Zm10-5 7-4 1-16-8 4v16Zm8-22v-15l-8 4v15l8-4Zm-9 5v-16l-8 5v16l8-5Zm-9 5-1-15-10 6 1 15 10-6Zm-11 7-1-15-10 7v15l11-7Zm-12 8v-15l-10 8v15l10-8Zm-11 9v-15l-10 9v14l10-8Zm-11 9v-14l-9 9-1 13 10-8Zm-12 9 1-13-9 9-2 13 10-9Zm-8-6 10-9v-13l-10 9v13Zm11-10 9-9 1-13-10 9v13Zm10-10 10-8v-14l-9 9-1 13Zm11-9 10-8v-14l-10 8v14Zm11-9 10-8-1-14-9 8v14Zm11-8 10-7-1-14-10 6 1 15Zm11-7 9-5-1-15-9 5 1 15Zm10-6 8-4-1-15-8 4 1 15Zm7-20-2-15-8 5 2 14 8-4Zm-9 4-2-14-9 6 2 13 9-5Zm-10 6-2-14-9 7 1 14 10-7Zm-11 8-1-14-10 8 2 13 9-7Zm-10 8-2-13-9 8 1 13 10-8Zm-11 9-1-13-9 9 1 13 9-9Zm-10 10-1-13-9 10v12l10-9Zm-11 11v-13l-9 9v13l9-9Zm-9-5 9-10-1-12-8 10v12Zm10-11 9-9-1-13-9 10 1 12Zm10-10 9-9-1-13-9 9 1 13Zm10-10 9-9-2-13-8 9 1 13Zm10-10 9-8-2-12-9 7 2 13Zm10-8 10-7-3-13-9 7 2 13Zm11-8 9-5-4-14-8 6 3 13Zm10-6 8-4-4-14-8 5 4 13Zm4-19-5-14-8 5 5 13 8-4Zm-9 5-5-13-8 6 4 13 9-6Zm-10 6-4-12-8 7 4 12 8-7Zm-9 8-4-12-8 8 3 12 9-8Zm-10 9-3-12-8 9 2 12 9-9Zm-9 10-3-12-8 9 2 12 9-9Zm-10 10-2-12-8 10 1 12 9-10Zm-10 11-1-12-9 9 2 12 8-9Zm-10-4 9-10-3-11-8 10 2 11Zm10-11 8-9-3-12-8 10 3 11Zm9-10 8-10-4-11-7 9 3 12Zm9-11 8-9c-2-4-2-7-5-11l-7 9 4 11Zm9-9 8-9-5-12-8 9 5 12Zm9-10 8-7-6-12-7 7 5 12Zm9-8 8-6-7-13-7 7 6 12Zm8-6 8-5-7-14-7 6 6 13Z"/><path d="m326 241-2-5-1 1 3 5-5 5 1 2 4-5c11 43 2 87-3 131l1-1c6-44 14-88 3-131 23-29 43-67 73-88l-1-2c-30 21-50 60-72 88h-1Z"/><path opacity=".5" d="M59 166a278 278 0 0 1 1 1l2 5-1 1-3-5-14 2 2 5-1 1-3-5-13 3 1 5-1 1-2-6-12 5 1 5h-2l-1-5-10 5 1 5-1 1-1-6-8 5a463 463 0 0 0-1 0l-7 5v6l-1-6-5 5v5l-1 1v-6l-5 5v6-6l-7 8v-2l7-7-1-13-7 8v-2l7-7v-12l-7 7v-2l7-7v-12l-7 7-1-2 8-6v-13l-8 6v-1l8-6-1-13-8 6v-1l8-6v-13l-9 6v-2l9-5-1-13-9 5v-1l9-6-1-13-10 6v-2l10-5-3-22 1-1 2 23 6-4-2-22h1l2 22 6-3-2-22 2 22 6-3-2-22h1l2 21 7-3-2-21v-1l2 22 8-3-3-22h1l3 21 7-3a604 604 0 0 0 1-1l9-4-4-21h1l4 21 9-5-4-21h1l4 21 4-2v1l-3 2 1 13 4-2v2l-4 1 2 12 4-1v2l-4 1 2 12 4-1v1l-4 1 2 13 4-1v1l-4 1 3 12 4-1 1 1-5 1 3 12 6-1v1l-5 1 4 12 6-1 1 1-6 1 5 11Zm-1 0-6-11-13 3 5 11 14-3Zm-16 3-4-11-13 3 3 12 14-4Zm-15 4-3-11-11 4 1 11 13-4Zm-14 5-2-11-9 4 1 12 10-5Zm-11 5-1-11-8 4 1 12 8-5Zm-9 5-1-12-6 5v12l7-5Zm-8 5v-12l-6 4 1 12 5-4Zm-6 5v-12l-5 4v12l5-4Zm-5-9 5-5v-12l-5 4v13Zm5-5 6-4v-12l-6 4v12Zm7-5 6-4v-12l-7 4 1 12Zm7-4 8-5-1-11-7 4v12Zm9-5 9-5-1-11-9 4 1 12Zm10-5 12-5-2-11-11 4 1 12Zm13-5 13-3-4-12-11 4 2 11Zm14-4 13-2-4-12-12 3 3 11Zm8-15-3-12-11 3 2 11 12-2Zm-13 3-2-12-11 4 2 11 11-3Zm-12 4-2-12-10 5 1 11 11-4Zm-12 5-1-12-8 4v12l9-4Zm-10 4v-11l-7 4v12l7-5Zm-8 5v-12l-7 4v12l7-4Zm-7 4v-12l-6 4v12l6-4Zm-6 5-1-12-5 4 1 12c1-2 2-3 5-4Zm-6-10 5-4v-12l-5 4v12Zm6-4 6-4v-12l-6 4v12Zm6-4 7-4v-12l-7 4v12Zm7-5 8-4v-11l-8 4v11Zm9-4 8-4v-12l-9 4 1 12Zm9-5 10-4-1-11-9 4v11Zm11-4 11-4-2-12-10 4 1 12Zm12-4 10-3-2-12-10 3 2 12Zm8-16-2-12-9 3 1 12 10-3Zm-11 3-1-12-10 4 1 12 10-4Zm-11 4-1-11-9 4v12l10-5Zm-10 5-1-12-8 4v12l9-4Zm-10 4v-11l-7 3v12l7-4Zm-7 5-1-12-6 3v12l7-3Zm-7 4-1-13-5 4v12l6-3Zm-7 4v-13l-5 4v12l5-3Zm-5-11 5-3v-13l-6 4 1 12Zm6-4 5-3v-12l-6 3 1 12Zm6-3 6-4v-12l-6 3v13Zm7-4 7-4v-12l-7 4v12Zm8-4 8-4-1-12-8 4 1 12Zm9-4 9-4-1-12-9 4 1 12Zm10-5 9-4-1-12-9 4 1 12Zm10-5 10-3-2-12-9 4 1 11Zm8-16-2-13-9 4 2 12 9-3Zm-10 4-2-12-9 4 1 12 10-4Zm-11 5-1-12-8 3 1 12 8-3Zm-9 4L6 89l-7 3v12l8-3Zm-9 4V93l-7 3 1 12 6-3Zm-7 4-1-13-6 3 1 13 6-3Zm-7 3-1-12-5 3v13l6-4Zm-6 4-1-13-5 3v13l6-3Zm-6-11 5-3-1-13-5 3 1 13Zm6-4 5-3V85l-6 4 1 12Zm6-3 6-3-1-13-6 3 1 13Zm7-4 7-3-1-12-7 3 1 12Zm8-3 7-4-1-12-7 3 1 13Zm8-4 8-4-1-12-8 4 1 12Zm9-4 9-4-2-13-8 5 1 12Zm10-5 9-4-1-12-10 4 2 12Z"/><path d="m-38 79-1-7 1 8-4 2 1 1 3-2c5 45 6 89 7 134l1-1c-2-44-2-89-7-133 23-13 49-24 73-36v-1C11 56-14 66-38 79Z"/></g><g filter="url(#c)" style="transform-origin:51% 53%"><animateTransform attributeName="transform" attributeType="XML" type="rotate" from="0" to="360" dur="5s" repeatCount="indefinite"/><path d="M161 221c0-21 17-38 38-38h6c20 0 37 17 37 38v6c0 20-17 37-37 37h-6c-21 0-38-17-38-37v-6Z" fill="url(#d)"/></g><g clip-path="url(#e)" style="transform-origin:51% 53%"><animateTransform attributeName="transform" attributeType="XML" type="rotate" from="0" to="360" dur="5s" repeatCount="indefinite"/><g filter="url(#f)" stroke-miterlimit="10" stroke-linejoin="round"><path opacity=".5" d="m60 207 55 129 84-112-55-129-84 112Zm112 13-38 51-13 18-34-79 52-68 8 20 25 58Z" fill="url(#g)" stroke="url(#h)"/><path opacity=".5" d="m139 142 8 20-38 51 25 58-13 18-34-79 52-68Z" fill="url(#i)" stroke="url(#j)"/><path opacity=".5" d="m139 142 8 20-38 51 25 58-13 18-34-79 52-68Z" fill="url(#k)" stroke="url(#l)"/><path opacity=".5" d="m109 213-22-3 52-68 20 3-50 68Z" fill="url(#m)" stroke="url(#n)"/><path opacity=".5" d="m83 210-22-3 84-112 20 2-82 113Z" fill="url(#o)" stroke="url(#p)"/><path opacity=".5" d="m109 214-22-3 34 78 20 3-32-78Z" fill="url(#q)" stroke="url(#r)"/><path opacity=".5" d="m83 210-22-2 55 129 20 2-53-129Z" fill="url(#s)" stroke="url(#t)"/><path opacity=".5" d="m60 207 55 129 84-112-55-129-84 112Zm112 13-38 51-13 18-34-79 52-68 8 20 25 58Z" fill="url(#u)" stroke="url(#v)"/><path opacity=".5" d="m60 207 55 129 84-112-55-129-84 112Zm112 13-38 51-13 18-34-79 52-68 8 20 25 58Z" fill="url(#w)" stroke="url(#x)"/><path opacity=".5" d="m139 142 8 20-38 51 25 58-13 18-34-79 52-68Z" fill="url(#y)" stroke="url(#z)"/><path opacity=".5" d="m139 142 8 20-38 51 25 58-13 18-34-79 52-68Z" fill="url(#A)" stroke="url(#B)"/><path opacity=".5" d="m109 213-22-3 52-68 20 3-50 68Z" fill="url(#C)" stroke="url(#D)"/><path opacity=".5" d="m143 292-22-3 51-68 20 3-49 68Z" fill="url(#E)" stroke="url(#F)"/><path opacity=".5" d="m83 210-22-3 84-112 20 2-82 113Z" fill="url(#G)" stroke="url(#H)"/><path opacity=".5" d="m109 214-22-3 34 78 20 3-32-78Z" fill="url(#I)" stroke="url(#J)"/><path opacity=".5" d="m161 145-22-2 34 78 20 2-32-78Z" fill="url(#K)" stroke="url(#L)"/><path opacity=".5" d="m83 210-22-2 55 129 20 2-53-129Z" fill="url(#M)" stroke="url(#N)"/><path opacity=".5" d="m255 352 84-112-139-16-84 112 139 16Zm-45-103 85 10-51 68-85-10 13-17 38-51Z" fill="url(#O)" stroke="url(#P)"/><path opacity=".5" d="m159 317 13-17 63 7 38-51 22 3-51 68-85-10Z" fill="url(#Q)" stroke="url(#R)"/><path opacity=".5" d="m159 317 13-17 63 7 38-51 22 3-51 68-85-10Z" fill="url(#S)" stroke="url(#T)"/><path opacity=".5" d="m235 307 9 20-85-10-7-19 83 9Z" fill="url(#U)" stroke="url(#V)"/><path opacity=".5" d="m246 332 8 20-139-16-7-20 138 16Z" fill="url(#W)" stroke="url(#X)"/><path opacity=".5" d="m236 307 9 20 51-68-9-19-51 67Z" fill="url(#Y)" stroke="url(#Z)"/><path opacity=".5" d="m246 331 9 20 84-112-8-18-85 110Z" fill="url(#aa)" stroke="url(#ab)"/><path opacity=".5" d="m255 352 84-112-139-16-84 112 139 16Zm-45-103 85 10-51 68-85-10 13-17 38-51Z" fill="url(#ac)" stroke="url(#ad)"/><path opacity=".5" d="m255 352 84-112-139-16-84 112 139 16Zm-45-103 85 10-51 68-85-10 13-17 38-51Z" fill="url(#ae)" stroke="url(#af)"/><path opacity=".5" d="m159 317 13-17 63 7 38-51 22 3-51 68-85-10Z" fill="url(#ag)" stroke="url(#ah)"/><path opacity=".5" d="m159 317 13-17 63 7 38-51 22 3-51 68-85-10Z" fill="url(#ai)" stroke="url(#aj)"/><path opacity=".5" d="m235 307 9 20-85-10-7-19 83 9Z" fill="url(#ak)" stroke="url(#al)"/><path opacity=".5" d="m287 239 9 20-85-10-8-19 84 9Z" fill="url(#am)" stroke="url(#an)"/><path opacity=".5" d="m246 332 8 20-139-16-7-20 138 16Z" fill="url(#ao)" stroke="url(#ap)"/><path opacity=".5" d="m236 307 9 20 51-68-9-19-51 67Z" fill="url(#aq)" stroke="url(#ar)"/><path opacity=".5" d="m151 296 9 20 51-68-9-19-51 67Z" fill="url(#as)" stroke="url(#at)"/><path opacity=".5" d="m246 331 9 20 84-112-8-18-85 110Z" fill="url(#au)" stroke="url(#av)"/><path opacity=".5" d="m284 111 55 129-139-17-55-128 139 16Zm-68 91 85 10-34-79-84-10 8 20 25 59Z" fill="url(#aw)" stroke="url(#ax)"/><path opacity=".5" d="m183 123 8 20 63 8 25 58 22 3-34-79-84-10Z" fill="url(#ay)" stroke="url(#az)"/><path opacity=".5" d="m183 123 8 20 63 8 25 58 22 3-34-79-84-10Z" fill="url(#aA)" stroke="url(#aB)"/><path opacity=".5" d="m254 151 13-18-84-10-12 17 83 11Z" fill="url(#aC)" stroke="url(#aD)"/><path opacity=".5" d="m270 129 13-17-139-17-12 16 138 18Z" fill="url(#aE)" stroke="url(#aF)"/><path opacity=".5" d="m255 151 13-17 33 78-12 16-34-77Z" fill="url(#aG)" stroke="url(#aH)"/><path opacity=".5" d="m271 130 13-17 55 128-13 16-55-127Z" fill="url(#aI)" stroke="url(#aJ)"/><path opacity=".5" d="m284 111 55 129-139-17-55-128 139 16Zm-68 91 85 10-34-79-84-10 8 20 25 59Z" fill="url(#aK)" stroke="url(#aL)"/><path opacity=".5" d="m284 111 55 129-139-17-55-128 139 16Zm-68 91 85 10-34-79-84-10 8 20 25 59Z" fill="url(#aM)" stroke="url(#aN)"/><path opacity=".5" d="m183 123 8 20 63 8 25 58 22 3-34-79-84-10Z" fill="url(#aO)" stroke="url(#aP)"/><path opacity=".5" d="m183 123 8 20 63 8 25 58 22 3-34-79-84-10Z" fill="url(#aQ)" stroke="url(#aR)"/><path opacity=".5" d="m254 151 13-18-84-10-12 17 83 11Z" fill="url(#aS)" stroke="url(#aT)"/><path opacity=".5" d="m288 230 14-18-85-10-12 17 83 11Z" fill="url(#aU)" stroke="url(#aV)"/><path opacity=".5" d="m270 129 13-17-139-17-12 16 138 18Z" fill="url(#aW)" stroke="url(#aX)"/><path opacity=".5" d="m255 151 13-17 33 78-12 16-34-77Z" fill="url(#aY)" stroke="url(#aZ)"/><path opacity=".5" d="m170 142 13-18 33 79-12 16-34-77Z" fill="url(#ba)" stroke="url(#bb)"/><path opacity=".5" d="m271 130 13-17 55 128-13 16-55-127Z" fill="url(#bc)" stroke="url(#bd)"/><path opacity=".5" d="m60 207 55 129 84-112-55-129-84 112Zm112 13-38 51-13 18-34-79 52-68 8 20 25 58Z" fill="url(#be)" stroke="url(#bf)"/><path opacity=".5" d="m255 352 84-112-139-16-84 112 139 16Zm-45-103 85 10-51 68-85-10 13-17 38-51Z" fill="url(#bg)" stroke="url(#bh)"/><path opacity=".5" d="m284 111 55 129-139-17-55-128 139 16Zm-68 91 85 10-34-79-84-10 8 20 25 59Z" fill="url(#bi)" stroke="url(#bj)"/></g></g><text transform="matrix(.59745 -.8019 .9932 .11638 128 330)" fill="#fff" xml:space="preserve" style="white-space:pre" font-family="Open Sans" font-size="13" font-weight="bold" letter-spacing="0em"><tspan x="0" y="14">LONG</tspan></text><g style="mix-blend-mode:soft-light"><text transform="matrix(.41214 .91112 -.99512 -.09871 289 130)" fill="#fff" xml:space="preserve" style="white-space:pre" font-family="Open Sans" font-size="12" letter-spacing="0em"><tspan x="0" y="12.7">addr —{PLACEHOLDER_ADDR}</tspan></text></g><text transform="translate(28 80)" fill="#fff" xml:space="preserve" style="white-space:pre" font-family="Misto" font-size="22" letter-spacing="0em"><tspan x="0" y="20.9">{PLACEHOLDER_PRICE} USD</tspan></text><text transform="rotate(90 104 269)" fill="#fff" xml:space="preserve" style="white-space:pre" font-family="Open Sans" font-size="20" font-weight="800" letter-spacing="0em"><tspan x="0" y="21.3">{PLACEHOLDER_SIZE} sUSD</tspan></text><text fill="#fff" xml:space="preserve" style="white-space:pre" font-family="Misto" font-size="42" letter-spacing="0em"><tspan x="50.7" y="65.6">{PLACEHOLDER_MARKET}/</tspan><tspan x="198.9" y="65.6">USD</tspan></text><text fill="#fff" xml:space="preserve" style="white-space:pre" font-family="Misto" font-size="30" letter-spacing="0em"><tspan x="27" y="65.6">s</tspan><tspan x="175.2" y="65.6">s</tspan></text></g><defs><linearGradient id="g" x1="60.3" y1="207" x2="201.2" y2="199" gradientUnits="userSpaceOnUse"><stop stop-color="#fff" stop-opacity=".4"/><stop offset="1" stop-color="#fff" stop-opacity=".1"/></linearGradient><linearGradient id="h" x1="60.3" y1="207" x2="199.4" y2="223.6" gradientUnits="userSpaceOnUse"><stop stop-color="#fff" stop-opacity=".4"/><stop offset="1" stop-color="#fff" stop-opacity="0"/></linearGradient><linearGradient id="i" x1="87.5" y1="210.2" x2="142" y2="210.7" gradientUnits="userSpaceOnUse"><stop stop-color="#fff" stop-opacity=".4"/><stop offset="1" stop-color="#fff" stop-opacity=".1"/></linearGradient><linearGradient id="j" x1="87.5" y1="210.2" x2="140.7" y2="216.6" gradientUnits="userSpaceOnUse"><stop stop-color="#fff" stop-opacity=".4"/><stop offset="1" stop-color="#fff" stop-opacity="0"/></linearGradient><linearGradient id="k" x1="87.5" y1="210.2" x2="142" y2="210.7" gradientUnits="userSpaceOnUse"><stop stop-color="#fff" stop-opacity=".4"/><stop offset="1" stop-color="#fff" stop-opacity=".1"/></linearGradient><linearGradient id="l" x1="87.5" y1="210.2" x2="140.7" y2="216.6" gradientUnits="userSpaceOnUse"><stop stop-color="#fff" stop-opacity=".4"/><stop offset="1" stop-color="#fff" stop-opacity="0"/></linearGradient><linearGradient id="m" x1="91.9" y1="173.5" x2="153.9" y2="164.9" gradientUnits="userSpaceOnUse"><stop stop-color="#fff" stop-opacity=".4"/><stop offset="1" stop-color="#fff" stop-opacity=".1"/></linearGradient><linearGradient id="n" x1="91.9" y1="173.5" x2="154.7" y2="181" gradientUnits="userSpaceOnUse"><stop stop-color="#fff" stop-opacity=".4"/><stop offset="1" stop-color="#fff" stop-opacity="0"/></linearGradient><linearGradient id="o" x1="68.3" y1="146.6" x2="157.8" y2="137.1" gradientUnits="userSpaceOnUse"><stop stop-color="#fff" stop-opacity=".4"/><stop offset="1" stop-color="#fff" stop-opacity=".1"/></linearGradient><linearGradient id="p" x1="68.3" y1="146.6" x2="157.9" y2="157.4" gradientUnits="userSpaceOnUse"><stop stop-color="#fff" stop-opacity=".4"/><stop offset="1" stop-color="#fff" stop-opacity="0"/></linearGradient><linearGradient id="q" x1="83" y1="247.7" x2="145" y2="239" gradientUnits="userSpaceOnUse"><stop stop-color="#fff" stop-opacity=".4"/><stop offset="1" stop-color="#fff" stop-opacity=".1"/></linearGradient><linearGradient id="r" x1="83" y1="247.7" x2="145.8" y2="255.2" gradientUnits="userSpaceOnUse"><stop stop-color="#fff" stop-opacity=".4"/><stop offset="1" stop-color="#fff" stop-opacity="0"/></linearGradient><linearGradient id="s" x1="54" y1="268.1" x2="143.5" y2="258.6" gradientUnits="userSpaceOnUse"><stop stop-color="#fff" stop-opacity=".4"/><stop offset="1" stop-color="#fff" stop-opacity=".1"/></linearGradient><linearGradient id="t" x1="54" y1="268.1" x2="143.6" y2="278.9" gradientUnits="userSpaceOnUse"><stop stop-color="#fff" stop-opacity=".4"/><stop offset="1" stop-color="#fff" stop-opacity="0"/></linearGradient><linearGradient id="u" x1="60.3" y1="207" x2="201.2" y2="199" gradientUnits="userSpaceOnUse"><stop stop-color="#fff" stop-opacity=".4"/><stop offset="1" stop-color="#fff" stop-opacity=".1"/></linearGradient><linearGradient id="v" x1="60.3" y1="207" x2="199.4" y2="223.6" gradientUnits="userSpaceOnUse"><stop stop-color="#fff" stop-opacity=".4"/><stop offset="1" stop-color="#fff" stop-opacity="0"/></linearGradient><linearGradient id="w" x1="60.3" y1="207" x2="201.2" y2="199" gradientUnits="userSpaceOnUse"><stop stop-color="#fff" stop-opacity=".4"/><stop offset="1" stop-color="#fff" stop-opacity=".1"/></linearGradient><linearGradient id="x" x1="60.3" y1="207" x2="199.4" y2="223.6" gradientUnits="userSpaceOnUse"><stop stop-color="#fff" stop-opacity=".4"/><stop offset="1" stop-color="#fff" stop-opacity="0"/></linearGradient><linearGradient id="y" x1="87.5" y1="210.2" x2="142" y2="210.7" gradientUnits="userSpaceOnUse"><stop stop-color="#fff" stop-opacity=".4"/><stop offset="1" stop-color="#fff" stop-opacity=".1"/></linearGradient><linearGradient id="z" x1="87.5" y1="210.2" x2="140.7" y2="216.6" gradientUnits="userSpaceOnUse"><stop stop-color="#fff" stop-opacity=".4"/><stop offset="1" stop-color="#fff" stop-opacity="0"/></linearGradient><linearGradient id="A" x1="87.5" y1="210.2" x2="142" y2="210.7" gradientUnits="userSpaceOnUse"><stop stop-color="#fff" stop-opacity=".4"/><stop offset="1" stop-color="#fff" stop-opacity=".1"/></linearGradient><linearGradient id="B" x1="87.5" y1="210.2" x2="140.7" y2="216.6" gradientUnits="userSpaceOnUse"><stop stop-color="#fff" stop-opacity=".4"/><stop offset="1" stop-color="#fff" stop-opacity="0"/></linearGradient><linearGradient id="C" x1="91.9" y1="173.5" x2="153.9" y2="164.9" gradientUnits="userSpaceOnUse"><stop stop-color="#fff" stop-opacity=".4"/><stop offset="1" stop-color="#fff" stop-opacity=".1"/></linearGradient><linearGradient id="D" x1="91.9" y1="173.5" x2="154.7" y2="181" gradientUnits="userSpaceOnUse"><stop stop-color="#fff" stop-opacity=".4"/><stop offset="1" stop-color="#fff" stop-opacity="0"/></linearGradient><linearGradient id="E" x1="125.3" y1="252.8" x2="187.3" y2="244.1" gradientUnits="userSpaceOnUse"><stop stop-color="#fff" stop-opacity=".4"/><stop offset="1" stop-color="#fff" stop-opacity=".1"/></linearGradient><linearGradient id="F" x1="125.3" y1="252.8" x2="188.1" y2="260.3" gradientUnits="userSpaceOnUse"><stop stop-color="#fff" stop-opacity=".4"/><stop offset="1" stop-color="#fff" stop-opacity="0"/></linearGradient><linearGradient id="G" x1="68.3" y1="146.6" x2="157.8" y2="137.1" gradientUnits="userSpaceOnUse"><stop stop-color="#fff" stop-opacity=".4"/><stop offset="1" stop-color="#fff" stop-opacity=".1"/></linearGradient><linearGradient id="H" x1="68.3" y1="146.6" x2="157.9" y2="157.4" gradientUnits="userSpaceOnUse"><stop stop-color="#fff" stop-opacity=".4"/><stop offset="1" stop-color="#fff" stop-opacity="0"/></linearGradient><linearGradient id="I" x1="83" y1="247.7" x2="145" y2="239" gradientUnits="userSpaceOnUse"><stop stop-color="#fff" stop-opacity=".4"/><stop offset="1" stop-color="#fff" stop-opacity=".1"/></linearGradient><linearGradient id="J" x1="83" y1="247.7" x2="145.8" y2="255.2" gradientUnits="userSpaceOnUse"><stop stop-color="#fff" stop-opacity=".4"/><stop offset="1" stop-color="#fff" stop-opacity="0"/></linearGradient><linearGradient id="K" x1="135" y1="179.5" x2="197" y2="170.8" gradientUnits="userSpaceOnUse"><stop stop-color="#fff" stop-opacity=".4"/><stop offset="1" stop-color="#fff" stop-opacity=".1"/></linearGradient><linearGradient id="L" x1="135" y1="179.5" x2="197.8" y2="187" gradientUnits="userSpaceOnUse"><stop stop-color="#fff" stop-opacity=".4"/><stop offset="1" stop-color="#fff" stop-opacity="0"/></linearGradient><linearGradient id="M" x1="54" y1="268.1" x2="143.5" y2="258.6" gradientUnits="userSpaceOnUse"><stop stop-color="#fff" stop-opacity=".4"/><stop offset="1" stop-color="#fff" stop-opacity=".1"/></linearGradient><linearGradient id="N" x1="54" y1="268.1" x2="143.6" y2="278.9" gradientUnits="userSpaceOnUse"><stop stop-color="#fff" stop-opacity=".4"/><stop offset="1" stop-color="#fff" stop-opacity="0"/></linearGradient><linearGradient id="O" x1="122.9" y1="275.5" x2="299.7" y2="206.8" gradientUnits="userSpaceOnUse"><stop stop-color="#fff" stop-opacity=".4"/><stop offset="1" stop-color="#fff" stop-opacity=".1"/></linearGradient><linearGradient id="P" x1="122.9" y1="275.5" x2="331.5" y2="300.6" gradientUnits="userSpaceOnUse"><stop stop-color="#fff" stop-opacity=".4"/><stop offset="1" stop-color="#fff" stop-opacity="0"/></linearGradient><linearGradient id="Q" x1="163.7" y1="280.4" x2="271.4" y2="238.5" gradientUnits="userSpaceOnUse"><stop stop-color="#fff" stop-opacity=".4"/><stop offset="1" stop-color="#fff" stop-opacity=".1"/></linearGradient><linearGradient id="R" x1="163.7" y1="280.4" x2="290.8" y2="295.7" gradientUnits="userSpaceOnUse"><stop stop-color="#fff" stop-opacity=".4"/><stop offset="1" stop-color="#fff" stop-opacity="0"/></linearGradient><linearGradient id="S" x1="163.7" y1="280.4" x2="271.4" y2="238.5" gradientUnits="userSpaceOnUse"><stop stop-color="#fff" stop-opacity=".4"/><stop offset="1" stop-color="#fff" stop-opacity=".1"/></linearGradient><linearGradient id="T" x1="163.7" y1="280.4" x2="290.8" y2="295.7" gradientUnits="userSpaceOnUse"><stop stop-color="#fff" stop-opacity=".4"/><stop offset="1" stop-color="#fff" stop-opacity="0"/></linearGradient><linearGradient id="U" x1="150.5" y1="306.5" x2="184.2" y2="265.8" gradientUnits="userSpaceOnUse"><stop stop-color="#fff" stop-opacity=".4"/><stop offset="1" stop-color="#fff" stop-opacity=".1"/></linearGradient><linearGradient id="V" x1="150.5" y1="306.5" x2="245.1" y2="317.9" gradientUnits="userSpaceOnUse"><stop stop-color="#fff" stop-opacity=".4"/><stop offset="1" stop-color="#fff" stop-opacity="0"/></linearGradient><linearGradient id="W" x1="106.6" y1="324.8" x2="135.9" y2="273.2" gradientUnits="userSpaceOnUse"><stop stop-color="#fff" stop-opacity=".4"/><stop offset="1" stop-color="#fff" stop-opacity=".1"/></linearGradient><linearGradient id="X" x1="106.6" y1="324.8" x2="255.4" y2="342.6" gradientUnits="userSpaceOnUse"><stop stop-color="#fff" stop-opacity=".4"/><stop offset="1" stop-color="#fff" stop-opacity="0"/></linearGradient><linearGradient id="Y" x1="239.3" y1="280.2" x2="293.2" y2="277" gradientUnits="userSpaceOnUse"><stop stop-color="#fff" stop-opacity=".4"/><stop offset="1" stop-color="#fff" stop-opacity=".1"/></linearGradient><linearGradient id="Z" x1="239.3" y1="280.2" x2="292.6" y2="286.6" gradientUnits="userSpaceOnUse"><stop stop-color="#fff" stop-opacity=".4"/><stop offset="1" stop-color="#fff" stop-opacity="0"/></linearGradient><linearGradient id="aa" x1="252.5" y1="281.1" x2="334.2" y2="276.2" gradientUnits="userSpaceOnUse"><stop stop-color="#fff" stop-opacity=".4"/><stop offset="1" stop-color="#fff" stop-opacity=".1"/></linearGradient><linearGradient id="ab" x1="252.5" y1="281.1" x2="333.2" y2="290.8" gradientUnits="userSpaceOnUse"><stop stop-color="#fff" stop-opacity=".4"/><stop offset="1" stop-color="#fff" stop-opacity="0"/></linearGradient><linearGradient id="ac" x1="122.9" y1="275.5" x2="299.7" y2="206.8" gradientUnits="userSpaceOnUse"><stop stop-color="#fff" stop-opacity=".4"/><stop offset="1" stop-color="#fff" stop-opacity=".1"/></linearGradient><linearGradient id="ad" x1="122.9" y1="275.5" x2="331.5" y2="300.6" gradientUnits="userSpaceOnUse"><stop stop-color="#fff" stop-opacity=".4"/><stop offset="1" stop-color="#fff" stop-opacity="0"/></linearGradient><linearGradient id="ae" x1="122.9" y1="275.5" x2="299.7" y2="206.8" gradientUnits="userSpaceOnUse"><stop stop-color="#fff" stop-opacity=".4"/><stop offset="1" stop-color="#fff" stop-opacity=".1"/></linearGradient><linearGradient id="af" x1="122.9" y1="275.5" x2="331.5" y2="300.6" gradientUnits="userSpaceOnUse"><stop stop-color="#fff" stop-opacity=".4"/><stop offset="1" stop-color="#fff" stop-opacity="0"/></linearGradient><linearGradient id="ag" x1="163.7" y1="280.4" x2="271.4" y2="238.5" gradientUnits="userSpaceOnUse"><stop stop-color="#fff" stop-opacity=".4"/><stop offset="1" stop-color="#fff" stop-opacity=".1"/></linearGradient><linearGradient id="ah" x1="163.7" y1="280.4" x2="290.8" y2="295.7" gradientUnits="userSpaceOnUse"><stop stop-color="#fff" stop-opacity=".4"/><stop offset="1" stop-color="#fff" stop-opacity="0"/></linearGradient><linearGradient id="ai" x1="163.7" y1="280.4" x2="271.4" y2="238.5" gradientUnits="userSpaceOnUse"><stop stop-color="#fff" stop-opacity=".4"/><stop offset="1" stop-color="#fff" stop-opacity=".1"/></linearGradient><linearGradient id="aj" x1="163.7" y1="280.4" x2="290.8" y2="295.7" gradientUnits="userSpaceOnUse"><stop stop-color="#fff" stop-opacity=".4"/><stop offset="1" stop-color="#fff" stop-opacity="0"/></linearGradient><linearGradient id="ak" x1="150.5" y1="306.5" x2="184.2" y2="265.8" gradientUnits="userSpaceOnUse"><stop stop-color="#fff" stop-opacity=".4"/><stop offset="1" stop-color="#fff" stop-opacity=".1"/></linearGradient><linearGradient id="al" x1="150.5" y1="306.5" x2="245.1" y2="317.9" gradientUnits="userSpaceOnUse"><stop stop-color="#fff" stop-opacity=".4"/><stop offset="1" stop-color="#fff" stop-opacity="0"/></linearGradient><linearGradient id="am" x1="202.4" y1="238" x2="236.2" y2="197.3" gradientUnits="userSpaceOnUse"><stop stop-color="#fff" stop-opacity=".4"/><stop offset="1" stop-color="#fff" stop-opacity=".1"/></linearGradient><linearGradient id="an" x1="202.4" y1="238" x2="297.1" y2="249.4" gradientUnits="userSpaceOnUse"><stop stop-color="#fff" stop-opacity=".4"/><stop offset="1" stop-color="#fff" stop-opacity="0"/></linearGradient><linearGradient id="ao" x1="106.6" y1="324.8" x2="135.9" y2="273.2" gradientUnits="userSpaceOnUse"><stop stop-color="#fff" stop-opacity=".4"/><stop offset="1" stop-color="#fff" stop-opacity=".1"/></linearGradient><linearGradient id="ap" x1="106.6" y1="324.8" x2="255.4" y2="342.6" gradientUnits="userSpaceOnUse"><stop stop-color="#fff" stop-opacity=".4"/><stop offset="1" stop-color="#fff" stop-opacity="0"/></linearGradient><linearGradient id="aq" x1="239.3" y1="280.2" x2="293.2" y2="277" gradientUnits="userSpaceOnUse"><stop stop-color="#fff" stop-opacity=".4"/><stop offset="1" stop-color="#fff" stop-opacity=".1"/></linearGradient><linearGradient id="ar" x1="239.3" y1="280.2" x2="292.6" y2="286.6" gradientUnits="userSpaceOnUse"><stop stop-color="#fff" stop-opacity=".4"/><stop offset="1" stop-color="#fff" stop-opacity="0"/></linearGradient><linearGradient id="as" x1="154.2" y1="269.3" x2="208.1" y2="266.1" gradientUnits="userSpaceOnUse"><stop stop-color="#fff" stop-opacity=".4"/><stop offset="1" stop-color="#fff" stop-opacity=".1"/></linearGradient><linearGradient id="at" x1="154.2" y1="269.3" x2="207.5" y2="275.7" gradientUnits="userSpaceOnUse"><stop stop-color="#fff" stop-opacity=".4"/><stop offset="1" stop-color="#fff" stop-opacity="0"/></linearGradient><linearGradient id="au" x1="252.5" y1="281.1" x2="334.2" y2="276.2" gradientUnits="userSpaceOnUse"><stop stop-color="#fff" stop-opacity=".4"/><stop offset="1" stop-color="#fff" stop-opacity=".1"/></linearGradient><linearGradient id="av" x1="252.5" y1="281.1" x2="333.2" y2="290.8" gradientUnits="userSpaceOnUse"><stop stop-color="#fff" stop-opacity=".4"/><stop offset="1" stop-color="#fff" stop-opacity="0"/></linearGradient><linearGradient id="aw" x1="137.4" y1="154.9" x2="314.2" y2="86.1" gradientUnits="userSpaceOnUse"><stop stop-color="#fff" stop-opacity=".4"/><stop offset="1" stop-color="#fff" stop-opacity=".1"/></linearGradient><linearGradient id="ax" x1="137.4" y1="154.9" x2="346" y2="179.9" gradientUnits="userSpaceOnUse"><stop stop-color="#fff" stop-opacity=".4"/><stop offset="1" stop-color="#fff" stop-opacity="0"/></linearGradient><linearGradient id="ay" x1="178.1" y1="159.7" x2="285.9" y2="117.8" gradientUnits="userSpaceOnUse"><stop stop-color="#fff" stop-opacity=".4"/><stop offset="1" stop-color="#fff" stop-opacity=".1"/></linearGradient><linearGradient id="az" x1="178.1" y1="159.7" x2="305.3" y2="175" gradientUnits="userSpaceOnUse"><stop stop-color="#fff" stop-opacity=".4"/><stop offset="1" stop-color="#fff" stop-opacity="0"/></linearGradient><linearGradient id="aA" x1="178.1" y1="159.7" x2="285.9" y2="117.8" gradientUnits="userSpaceOnUse"><stop stop-color="#fff" stop-opacity=".4"/><stop offset="1" stop-color="#fff" stop-opacity=".1"/></linearGradient><linearGradient id="aB" x1="178.1" y1="159.7" x2="305.3" y2="175" gradientUnits="userSpaceOnUse"><stop stop-color="#fff" stop-opacity=".4"/><stop offset="1" stop-color="#fff" stop-opacity="0"/></linearGradient><linearGradient id="aC" x1="171.5" y1="131.3" x2="205.2" y2="90.6" gradientUnits="userSpaceOnUse"><stop stop-color="#fff" stop-opacity=".4"/><stop offset="1" stop-color="#fff" stop-opacity=".1"/></linearGradient><linearGradient id="aD" x1="171.5" y1="131.3" x2="266.2" y2="142.6" gradientUnits="userSpaceOnUse"><stop stop-color="#fff" stop-opacity=".4"/><stop offset="1" stop-color="#fff" stop-opacity="0"/></linearGradient><linearGradient id="aE" x1="133.2" y1="103.2" x2="162.5" y2="51.6" gradientUnits="userSpaceOnUse"><stop stop-color="#fff" stop-opacity=".4"/><stop offset="1" stop-color="#fff" stop-opacity=".1"/></linearGradient><linearGradient id="aF" x1="133.2" y1="103.2" x2="282" y2="121" gradientUnits="userSpaceOnUse"><stop stop-color="#fff" stop-opacity=".4"/><stop offset="1" stop-color="#fff" stop-opacity="0"/></linearGradient><linearGradient id="aG" x1="251.6" y1="177.8" x2="305.5" y2="174.6" gradientUnits="userSpaceOnUse"><stop stop-color="#fff" stop-opacity=".4"/><stop offset="1" stop-color="#fff" stop-opacity=".1"/></linearGradient><linearGradient id="aH" x1="251.6" y1="177.8" x2="304.8" y2="184.2" gradientUnits="userSpaceOnUse"><stop stop-color="#fff" stop-opacity=".4"/><stop offset="1" stop-color="#fff" stop-opacity="0"/></linearGradient><linearGradient id="aI" x1="264.6" y1="180.1" x2="346.3" y2="175.3" gradientUnits="userSpaceOnUse"><stop stop-color="#fff" stop-opacity=".4"/><stop offset="1" stop-color="#fff" stop-opacity=".1"/></linearGradient><linearGradient id="aJ" x1="264.6" y1="180.1" x2="345.3" y2="189.8" gradientUnits="userSpaceOnUse"><stop stop-color="#fff" stop-opacity=".4"/><stop offset="1" stop-color="#fff" stop-opacity="0"/></linearGradient><linearGradient id="aK" x1="137.4" y1="154.9" x2="314.2" y2="86.1" gradientUnits="userSpaceOnUse"><stop stop-color="#fff" stop-opacity=".4"/><stop offset="1" stop-color="#fff" stop-opacity=".1"/></linearGradient><linearGradient id="aL" x1="137.4" y1="154.9" x2="346" y2="179.9" gradientUnits="userSpaceOnUse"><stop stop-color="#fff" stop-opacity=".4"/><stop offset="1" stop-color="#fff" stop-opacity="0"/></linearGradient><linearGradient id="aM" x1="137.4" y1="154.9" x2="314.2" y2="86.1" gradientUnits="userSpaceOnUse"><stop stop-color="#fff" stop-opacity=".4"/><stop offset="1" stop-color="#fff" stop-opacity=".1"/></linearGradient><linearGradient id="aN" x1="137.4" y1="154.9" x2="346" y2="179.9" gradientUnits="userSpaceOnUse"><stop stop-color="#fff" stop-opacity=".4"/><stop offset="1" stop-color="#fff" stop-opacity="0"/></linearGradient><linearGradient id="aO" x1="178.1" y1="159.7" x2="285.9" y2="117.8" gradientUnits="userSpaceOnUse"><stop stop-color="#fff" stop-opacity=".4"/><stop offset="1" stop-color="#fff" stop-opacity=".1"/></linearGradient><linearGradient id="aP" x1="178.1" y1="159.7" x2="305.3" y2="175" gradientUnits="userSpaceOnUse"><stop stop-color="#fff" stop-opacity=".4"/><stop offset="1" stop-color="#fff" stop-opacity="0"/></linearGradient><linearGradient id="aQ" x1="178.1" y1="159.7" x2="285.9" y2="117.8" gradientUnits="userSpaceOnUse"><stop stop-color="#fff" stop-opacity=".4"/><stop offset="1" stop-color="#fff" stop-opacity=".1"/></linearGradient><linearGradient id="aR" x1="178.1" y1="159.7" x2="305.3" y2="175" gradientUnits="userSpaceOnUse"><stop stop-color="#fff" stop-opacity=".4"/><stop offset="1" stop-color="#fff" stop-opacity="0"/></linearGradient><linearGradient id="aS" x1="171.5" y1="131.3" x2="205.2" y2="90.6" gradientUnits="userSpaceOnUse"><stop stop-color="#fff" stop-opacity=".4"/><stop offset="1" stop-color="#fff" stop-opacity=".1"/></linearGradient><linearGradient id="aT" x1="171.5" y1="131.3" x2="266.2" y2="142.6" gradientUnits="userSpaceOnUse"><stop stop-color="#fff" stop-opacity=".4"/><stop offset="1" stop-color="#fff" stop-opacity="0"/></linearGradient><linearGradient id="aU" x1="205.8" y1="210.1" x2="239.5" y2="169.4" gradientUnits="userSpaceOnUse"><stop stop-color="#fff" stop-opacity=".4"/><stop offset="1" stop-color="#fff" stop-opacity=".1"/></linearGradient><linearGradient id="aV" x1="205.8" y1="210.1" x2="300.4" y2="221.5" gradientUnits="userSpaceOnUse"><stop stop-color="#fff" stop-opacity=".4"/><stop offset="1" stop-color="#fff" stop-opacity="0"/></linearGradient><linearGradient id="aW" x1="133.2" y1="103.2" x2="162.5" y2="51.6" gradientUnits="userSpaceOnUse"><stop stop-color="#fff" stop-opacity=".4"/><stop offset="1" stop-color="#fff" stop-opacity=".1"/></linearGradient><linearGradient id="aX" x1="133.2" y1="103.2" x2="282" y2="121" gradientUnits="userSpaceOnUse"><stop stop-color="#fff" stop-opacity=".4"/><stop offset="1" stop-color="#fff" stop-opacity="0"/></linearGradient><linearGradient id="aY" x1="251.6" y1="177.8" x2="305.5" y2="174.6" gradientUnits="userSpaceOnUse"><stop stop-color="#fff" stop-opacity=".4"/><stop offset="1" stop-color="#fff" stop-opacity=".1"/></linearGradient><linearGradient id="aZ" x1="251.6" y1="177.8" x2="304.8" y2="184.2" gradientUnits="userSpaceOnUse"><stop stop-color="#fff" stop-opacity=".4"/><stop offset="1" stop-color="#fff" stop-opacity="0"/></linearGradient><linearGradient id="ba" x1="166.3" y1="168.3" x2="220.3" y2="165.1" gradientUnits="userSpaceOnUse"><stop stop-color="#fff" stop-opacity=".4"/><stop offset="1" stop-color="#fff" stop-opacity=".1"/></linearGradient><linearGradient id="bb" x1="166.3" y1="168.3" x2="219.6" y2="174.7" gradientUnits="userSpaceOnUse"><stop stop-color="#fff" stop-opacity=".4"/><stop offset="1" stop-color="#fff" stop-opacity="0"/></linearGradient><linearGradient id="bc" x1="264.6" y1="180.1" x2="346.3" y2="175.3" gradientUnits="userSpaceOnUse"><stop stop-color="#fff" stop-opacity=".4"/><stop offset="1" stop-color="#fff" stop-opacity=".1"/></linearGradient><linearGradient id="bd" x1="264.6" y1="180.1" x2="345.3" y2="189.8" gradientUnits="userSpaceOnUse"><stop stop-color="#fff" stop-opacity=".4"/><stop offset="1" stop-color="#fff" stop-opacity="0"/></linearGradient><linearGradient id="be" x1="60.3" y1="207" x2="201.2" y2="199" gradientUnits="userSpaceOnUse"><stop stop-color="#fff" stop-opacity=".4"/><stop offset="1" stop-color="#fff" stop-opacity=".1"/></linearGradient><linearGradient id="bf" x1="60.3" y1="207" x2="199.4" y2="223.6" gradientUnits="userSpaceOnUse"><stop stop-color="#fff" stop-opacity=".4"/><stop offset="1" stop-color="#fff" stop-opacity="0"/></linearGradient><linearGradient id="bg" x1="122.9" y1="275.5" x2="299.7" y2="206.8" gradientUnits="userSpaceOnUse"><stop stop-color="#fff" stop-opacity=".4"/><stop offset="1" stop-color="#fff" stop-opacity=".1"/></linearGradient><linearGradient id="bh" x1="122.9" y1="275.5" x2="331.5" y2="300.6" gradientUnits="userSpaceOnUse"><stop stop-color="#fff" stop-opacity=".4"/><stop offset="1" stop-color="#fff" stop-opacity="0"/></linearGradient><linearGradient id="bi" x1="137.4" y1="154.9" x2="314.2" y2="86.1" gradientUnits="userSpaceOnUse"><stop stop-color="#fff" stop-opacity=".4"/><stop offset="1" stop-color="#fff" stop-opacity=".1"/></linearGradient><linearGradient id="bj" x1="137.4" y1="154.9" x2="346" y2="179.9" gradientUnits="userSpaceOnUse"><stop stop-color="#fff" stop-opacity=".4"/><stop offset="1" stop-color="#fff" stop-opacity="0"/></linearGradient><clipPath id="a"><rect width="400" height="400" rx="50" fill="#fff"/></clipPath><clipPath id="b"><path fill="#fff" transform="translate(-76 -248)" d="M0 0h567v749H0z"/></clipPath><clipPath id="e"><path fill="#fff" transform="rotate(-83 205 160)" d="M0 0h282v324H0z"/></clipPath><filter id="c" x="147" y="169" width="109" height="109" filterUnits="userSpaceOnUse" color-interpolation-filters="sRGB"><feFlood flood-opacity="0" result="BackgroundImageFix"/><feColorMatrix in="SourceAlpha" values="0 0 0 0 0 0 0 0 0 0 0 0 0 0 0 0 0 0 127 0" result="hardAlpha"/><feOffset/><feGaussianBlur stdDeviation="7"/><feComposite in2="hardAlpha" operator="out"/><feColorMatrix values="0 0 0 0 0.101961 0 0 0 0 0.733333 0 0 0 0 0 0 0 0 1 0"/><feBlend in2="BackgroundImageFix" result="effect1_dropShadow_32_1242"/><feBlend in="SourceGraphic" in2="effect1_dropShadow_32_1242" result="shape"/></filter><filter id="f" x="49.8" y="84.1" width="300" height="278.8" filterUnits="userSpaceOnUse" color-interpolation-filters="sRGB"><feFlood flood-opacity="0" result="BackgroundImageFix"/><feGaussianBlur in="BackgroundImage" stdDeviation="5"/><feComposite in2="SourceAlpha" operator="in" result="effect1_backgroundBlur_32_1242"/><feBlend in="SourceGraphic" in2="effect1_backgroundBlur_32_1242" result="shape"/></filter><radialGradient id="d" cx="0" cy="0" r="1" gradientUnits="userSpaceOnUse" gradientTransform="rotate(79 -31 219) scale(58.6387)"><stop stop-color="#9FFF8F"/><stop offset="1" stop-color="#1ABB00"/></radialGradient></defs></svg>