
<svg width="600" height="605" viewBox="0 0 600 605" fill="none" xmlns="http://www.w3.org/2000/svg">
<g filter="url(#filter0_i_73_2314)">
<path d="M214.348 291.365C214.348 245.502 251.526 208.323 297.389 208.323H310.676C356.539 208.323 393.718 245.502 393.718 291.365V304.652C393.718 350.515 356.539 387.693 310.676 387.693H297.389C251.526 387.693 214.348 350.515 214.348 304.652V291.365Z" fill="url(#paint0_radial_73_2314)"/>
</g>
<path opacity="0.5" d="M599.083 388.771L524.95 87.5684L301.174 302.363L375.287 603.559L599.083 388.771ZM359.341 319.235L460.778 221.866L495.724 188.33L540.896 371.894L404.513 502.797L392.934 455.769L359.341 319.235Z" fill="url(#paint1_linear_73_2314)" stroke="url(#paint2_linear_73_2314)" stroke-miterlimit="10" stroke-linejoin="round"/>
<path opacity="0.5" d="M404.511 502.797L392.932 455.769L494.386 358.404L460.776 221.866L495.722 188.33L540.894 371.894L404.511 502.797Z" fill="url(#paint3_linear_73_2314)" stroke="url(#paint4_linear_73_2314)" stroke-miterlimit="10" stroke-linejoin="round"/>
<path opacity="0.5" d="M404.511 502.797L392.932 455.769L494.386 358.404L460.776 221.866L495.722 188.33L540.894 371.894L404.511 502.797Z" fill="url(#paint5_linear_73_2314)" stroke="url(#paint6_linear_73_2314)" stroke-miterlimit="10" stroke-linejoin="round"/>
<path opacity="0.5" d="M494.387 358.406L540.895 371.894L404.511 502.797L360.986 489.253L494.387 358.406Z" fill="url(#paint7_linear_73_2314)" stroke="url(#paint8_linear_73_2314)" stroke-miterlimit="10" stroke-linejoin="round"/>
<path opacity="0.5" d="M550.854 375.097L597.36 388.585L374.409 603.911L330.887 590.367L550.854 375.097Z" fill="url(#paint9_linear_73_2314)" stroke="url(#paint10_linear_73_2314)" stroke-miterlimit="10" stroke-linejoin="round"/>
<path opacity="0.5" d="M494.861 356.766L541.366 370.254L496.194 186.692L452.18 174.845L494.861 356.766Z" fill="url(#paint11_linear_73_2314)" stroke="url(#paint12_linear_73_2314)" stroke-miterlimit="10" stroke-linejoin="round"/>
<path opacity="0.5" d="M550.853 373.005L597.359 386.495L524.229 85.2906L480.215 73.4434L550.853 373.005Z" fill="url(#paint13_linear_73_2314)" stroke="url(#paint14_linear_73_2314)" stroke-miterlimit="10" stroke-linejoin="round"/>
<path opacity="0.5" d="M599.083 388.771L524.95 87.5684L301.174 302.363L375.287 603.559L599.083 388.771ZM359.341 319.235L460.778 221.866L495.724 188.33L540.896 371.894L404.513 502.797L392.934 455.769L359.341 319.235Z" fill="url(#paint15_linear_73_2314)" stroke="url(#paint16_linear_73_2314)" stroke-miterlimit="10" stroke-linejoin="round"/>
<path opacity="0.5" d="M599.083 388.771L524.95 87.5684L301.174 302.363L375.287 603.559L599.083 388.771ZM359.341 319.235L460.778 221.866L495.724 188.33L540.896 371.894L404.513 502.797L392.934 455.769L359.341 319.235Z" fill="url(#paint17_linear_73_2314)" stroke="url(#paint18_linear_73_2314)" stroke-miterlimit="10" stroke-linejoin="round"/>
<path opacity="0.5" d="M404.511 502.797L392.932 455.769L494.386 358.404L460.776 221.866L495.722 188.33L540.894 371.894L404.511 502.797Z" fill="url(#paint19_linear_73_2314)" stroke="url(#paint20_linear_73_2314)" stroke-miterlimit="10" stroke-linejoin="round"/>
<path opacity="0.5" d="M404.511 502.797L392.932 455.769L494.386 358.404L460.776 221.866L495.722 188.33L540.894 371.894L404.511 502.797Z" fill="url(#paint21_linear_73_2314)" stroke="url(#paint22_linear_73_2314)" stroke-miterlimit="10" stroke-linejoin="round"/>
<path opacity="0.5" d="M494.387 358.406L540.895 371.894L404.511 502.797L360.986 489.253L494.387 358.406Z" fill="url(#paint23_linear_73_2314)" stroke="url(#paint24_linear_73_2314)" stroke-miterlimit="10" stroke-linejoin="round"/>
<path opacity="0.5" d="M449.885 173.258L496.393 186.748L360.007 317.651L316.484 304.107L449.885 173.258Z" fill="url(#paint25_linear_73_2314)" stroke="url(#paint26_linear_73_2314)" stroke-miterlimit="10" stroke-linejoin="round"/>
<path opacity="0.5" d="M550.854 375.097L597.36 388.585L374.409 603.911L330.887 590.367L550.854 375.097Z" fill="url(#paint27_linear_73_2314)" stroke="url(#paint28_linear_73_2314)" stroke-miterlimit="10" stroke-linejoin="round"/>
<path opacity="0.5" d="M494.861 356.766L541.366 370.254L496.194 186.692L452.18 174.845L494.861 356.766Z" fill="url(#paint29_linear_73_2314)" stroke="url(#paint30_linear_73_2314)" stroke-miterlimit="10" stroke-linejoin="round"/>
<path opacity="0.5" d="M356.744 487.168L403.251 500.656L358.079 317.091L314.062 305.244L356.744 487.168Z" fill="url(#paint31_linear_73_2314)" stroke="url(#paint32_linear_73_2314)" stroke-miterlimit="10" stroke-linejoin="round"/>
<path opacity="0.5" d="M550.853 373.005L597.359 386.495L524.229 85.2906L480.215 73.4434L550.853 373.005Z" fill="url(#paint33_linear_73_2314)" stroke="url(#paint34_linear_73_2314)" stroke-miterlimit="10" stroke-linejoin="round"/>
<path opacity="0.5" d="M226.416 1L2.63477 215.813L300.525 302.216L524.328 87.4083L226.416 1ZM286.08 243.385L104.525 190.726L240.888 59.8163L422.444 112.478L387.517 146.016L286.06 243.381L286.08 243.385Z" fill="url(#paint35_linear_73_2314)" stroke="url(#paint36_linear_73_2314)" stroke-miterlimit="10" stroke-linejoin="round"/>
<path opacity="0.5" d="M422.443 112.478L387.517 146.016L252.467 106.845L151.029 204.214L104.504 190.719L240.887 59.8164L422.443 112.478Z" fill="url(#paint37_linear_73_2314)" stroke="url(#paint38_linear_73_2314)" stroke-miterlimit="10" stroke-linejoin="round"/>
<path opacity="0.5" d="M422.443 112.478L387.517 146.016L252.467 106.845L151.029 204.214L104.504 190.719L240.887 59.8164L422.443 112.478Z" fill="url(#paint39_linear_73_2314)" stroke="url(#paint40_linear_73_2314)" stroke-miterlimit="10" stroke-linejoin="round"/>
<path opacity="0.5" d="M252.466 106.845L240.887 59.8164L422.442 112.478L432.487 156.951L252.466 106.845Z" fill="url(#paint41_linear_73_2314)" stroke="url(#paint42_linear_73_2314)" stroke-miterlimit="10" stroke-linejoin="round"/>
<path opacity="0.5" d="M238.667 49.6031L227.107 2.5791L525.054 87.9971L535.077 132.463L238.667 49.6031Z" fill="url(#paint43_linear_73_2314)" stroke="url(#paint44_linear_73_2314)" stroke-miterlimit="10" stroke-linejoin="round"/>
<path opacity="0.5" d="M250.799 107.26L239.219 60.2295L102.834 191.134L114.588 235.184L250.799 107.26Z" fill="url(#paint45_linear_73_2314)" stroke="url(#paint46_linear_73_2314)" stroke-miterlimit="10" stroke-linejoin="round"/>
<path opacity="0.5" d="M236.861 50.647L225.301 3.62305L1 217.554L12.7538 261.604L236.861 50.647Z" fill="url(#paint47_linear_73_2314)" stroke="url(#paint48_linear_73_2314)" stroke-miterlimit="10" stroke-linejoin="round"/>
<path opacity="0.5" d="M226.416 1L2.63477 215.813L300.525 302.216L524.328 87.4083L226.416 1ZM286.08 243.385L104.525 190.726L240.888 59.8163L422.444 112.478L387.517 146.016L286.06 243.381L286.08 243.385Z" fill="url(#paint49_linear_73_2314)" stroke="url(#paint50_linear_73_2314)" stroke-miterlimit="10" stroke-linejoin="round"/>
<path opacity="0.5" d="M226.416 1L2.63477 215.813L300.525 302.216L524.328 87.4083L226.416 1ZM286.08 243.385L104.525 190.726L240.888 59.8163L422.444 112.478L387.517 146.016L286.06 243.381L286.08 243.385Z" fill="url(#paint51_linear_73_2314)" stroke="url(#paint52_linear_73_2314)" stroke-miterlimit="10" stroke-linejoin="round"/>
<path opacity="0.5" d="M422.443 112.478L387.517 146.016L252.467 106.845L151.029 204.214L104.504 190.719L240.887 59.8164L422.443 112.478Z" fill="url(#paint53_linear_73_2314)" stroke="url(#paint54_linear_73_2314)" stroke-miterlimit="10" stroke-linejoin="round"/>
<path opacity="0.5" d="M422.443 112.478L387.517 146.016L252.467 106.845L151.029 204.214L104.504 190.719L240.887 59.8164L422.443 112.478Z" fill="url(#paint55_linear_73_2314)" stroke="url(#paint56_linear_73_2314)" stroke-miterlimit="10" stroke-linejoin="round"/>
<path opacity="0.5" d="M252.466 106.845L240.887 59.8164L422.442 112.478L432.487 156.951L252.466 106.845Z" fill="url(#paint57_linear_73_2314)" stroke="url(#paint58_linear_73_2314)" stroke-miterlimit="10" stroke-linejoin="round"/>
<path opacity="0.5" d="M114.37 237.963L102.791 190.935L284.349 243.594L294.372 288.062L114.37 237.963Z" fill="url(#paint59_linear_73_2314)" stroke="url(#paint60_linear_73_2314)" stroke-miterlimit="10" stroke-linejoin="round"/>
<path opacity="0.5" d="M238.667 49.6031L227.107 2.5791L525.054 87.9971L535.077 132.463L238.667 49.6031Z" fill="url(#paint61_linear_73_2314)" stroke="url(#paint62_linear_73_2314)" stroke-miterlimit="10" stroke-linejoin="round"/>
<path opacity="0.5" d="M250.799 107.26L239.219 60.2295L102.834 191.134L114.588 235.184L250.799 107.26Z" fill="url(#paint63_linear_73_2314)" stroke="url(#paint64_linear_73_2314)" stroke-miterlimit="10" stroke-linejoin="round"/>
<path opacity="0.5" d="M432.789 161.677L421.209 114.646L284.826 245.551L296.58 289.601L432.789 161.677Z" fill="url(#paint65_linear_73_2314)" stroke="url(#paint66_linear_73_2314)" stroke-miterlimit="10" stroke-linejoin="round"/>
<path opacity="0.5" d="M236.861 50.647L225.301 3.62305L1 217.554L12.7538 261.604L236.861 50.647Z" fill="url(#paint67_linear_73_2314)" stroke="url(#paint68_linear_73_2314)" stroke-miterlimit="10" stroke-linejoin="round"/>
<path opacity="0.5" d="M76.5965 517.529L2.48828 216.313L300.38 302.717L374.513 603.919L76.602 517.509L76.5965 517.529ZM256.696 344.687L75.14 292.025L120.313 475.59L301.848 528.245L290.289 481.221L256.676 344.68L256.696 344.687Z" fill="url(#paint69_linear_73_2314)" stroke="url(#paint70_linear_73_2314)" stroke-miterlimit="10" stroke-linejoin="round"/>
<path opacity="0.5" d="M301.855 528.225L290.296 481.201L155.246 442.03L121.653 305.496L75.127 292.001L120.3 475.565L301.855 528.225Z" fill="url(#paint71_linear_73_2314)" stroke="url(#paint72_linear_73_2314)" stroke-miterlimit="10" stroke-linejoin="round"/>
<path opacity="0.5" d="M301.855 528.225L290.296 481.201L155.246 442.03L121.653 305.496L75.127 292.001L120.3 475.565L301.855 528.225Z" fill="url(#paint73_linear_73_2314)" stroke="url(#paint74_linear_73_2314)" stroke-miterlimit="10" stroke-linejoin="round"/>
<path opacity="0.5" d="M155.245 442.029L120.299 475.565L301.855 528.224L334.137 496.029L155.245 442.029Z" fill="url(#paint75_linear_73_2314)" stroke="url(#paint76_linear_73_2314)" stroke-miterlimit="10" stroke-linejoin="round"/>
<path opacity="0.5" d="M112.957 483.005L78.0293 516.545L375.439 603.812L407.697 571.629L112.957 483.005Z" fill="url(#paint77_linear_73_2314)" stroke="url(#paint78_linear_73_2314)" stroke-miterlimit="10" stroke-linejoin="round"/>
<path opacity="0.5" d="M154.058 440.788L119.109 474.324L73.9375 290.76L107.437 259.835L154.058 440.788Z" fill="url(#paint79_linear_73_2314)" stroke="url(#paint80_linear_73_2314)" stroke-miterlimit="10" stroke-linejoin="round"/>
<path opacity="0.5" d="M111.992 481.156L77.0637 514.696L2.04688 213.948L35.547 183.025L111.992 481.156Z" fill="url(#paint81_linear_73_2314)" stroke="url(#paint82_linear_73_2314)" stroke-miterlimit="10" stroke-linejoin="round"/>
<path opacity="0.5" d="M76.5965 517.529L2.48828 216.313L300.38 302.717L374.513 603.919L76.602 517.509L76.5965 517.529ZM256.696 344.687L75.14 292.025L120.313 475.59L301.848 528.245L290.289 481.221L256.676 344.68L256.696 344.687Z" fill="url(#paint83_linear_73_2314)" stroke="url(#paint84_linear_73_2314)" stroke-miterlimit="10" stroke-linejoin="round"/>
<path opacity="0.5" d="M76.5965 517.529L2.48828 216.313L300.38 302.717L374.513 603.919L76.602 517.509L76.5965 517.529ZM256.696 344.687L75.14 292.025L120.313 475.59L301.848 528.245L290.289 481.221L256.676 344.68L256.696 344.687Z" fill="url(#paint85_linear_73_2314)" stroke="url(#paint86_linear_73_2314)" stroke-miterlimit="10" stroke-linejoin="round"/>
<path opacity="0.5" d="M301.855 528.225L290.296 481.201L155.246 442.03L121.653 305.496L75.127 292.001L120.3 475.565L301.855 528.225Z" fill="url(#paint87_linear_73_2314)" stroke="url(#paint88_linear_73_2314)" stroke-miterlimit="10" stroke-linejoin="round"/>
<path opacity="0.5" d="M301.855 528.225L290.296 481.201L155.246 442.03L121.653 305.496L75.127 292.001L120.3 475.565L301.855 528.225Z" fill="url(#paint89_linear_73_2314)" stroke="url(#paint90_linear_73_2314)" stroke-miterlimit="10" stroke-linejoin="round"/>
<path opacity="0.5" d="M155.245 442.029L120.299 475.565L301.855 528.224L334.137 496.029L155.245 442.029Z" fill="url(#paint91_linear_73_2314)" stroke="url(#paint92_linear_73_2314)" stroke-miterlimit="10" stroke-linejoin="round"/>
<path opacity="0.5" d="M108.741 257.37L73.7949 290.906L255.35 343.565L287.613 311.363L108.741 257.37Z" fill="url(#paint93_linear_73_2314)" stroke="url(#paint94_linear_73_2314)" stroke-miterlimit="10" stroke-linejoin="round"/>
<path opacity="0.5" d="M112.957 483.005L78.0293 516.545L375.439 603.812L407.697 571.629L112.957 483.005Z" fill="url(#paint95_linear_73_2314)" stroke="url(#paint96_linear_73_2314)" stroke-miterlimit="10" stroke-linejoin="round"/>
<path opacity="0.5" d="M154.058 440.788L119.109 474.324L73.9375 290.76L107.437 259.835L154.058 440.788Z" fill="url(#paint97_linear_73_2314)" stroke="url(#paint98_linear_73_2314)" stroke-miterlimit="10" stroke-linejoin="round"/>
<path opacity="0.5" d="M336.913 492.216L301.971 525.732L256.799 342.167L290.295 311.263L336.913 492.216Z" fill="url(#paint99_linear_73_2314)" stroke="url(#paint100_linear_73_2314)" stroke-miterlimit="10" stroke-linejoin="round"/>
<path opacity="0.5" d="M111.992 481.156L77.0637 514.696L2.04688 213.948L35.547 183.025L111.992 481.156Z" fill="url(#paint101_linear_73_2314)" stroke="url(#paint102_linear_73_2314)" stroke-miterlimit="10" stroke-linejoin="round"/>
<path opacity="0.5" d="M599.083 388.771L524.95 87.5684L301.174 302.363L375.287 603.559L599.083 388.771ZM359.341 319.235L460.778 221.866L495.724 188.33L540.896 371.894L404.513 502.797L392.934 455.769L359.341 319.235Z" fill="url(#paint103_linear_73_2314)" stroke="url(#paint104_linear_73_2314)" stroke-miterlimit="10" stroke-linejoin="round"/>
<path opacity="0.5" d="M226.416 1L2.63477 215.813L300.525 302.216L524.328 87.4083L226.416 1ZM286.08 243.385L104.525 190.726L240.888 59.8163L422.444 112.478L387.517 146.016L286.06 243.381L286.08 243.385Z" fill="url(#paint105_linear_73_2314)" stroke="url(#paint106_linear_73_2314)" stroke-miterlimit="10" stroke-linejoin="round"/>
<path opacity="0.5" d="M76.5965 517.529L2.48828 216.313L300.38 302.717L374.513 603.919L76.602 517.509L76.5965 517.529ZM256.696 344.687L75.14 292.025L120.313 475.59L301.848 528.245L290.289 481.221L256.676 344.68L256.696 344.687Z" fill="url(#paint107_linear_73_2314)" stroke="url(#paint108_linear_73_2314)" stroke-miterlimit="10" stroke-linejoin="round"/>
<defs>
<filter id="filter0_i_73_2314" x="214.348" y="208.323" width="179.369" height="179.37" filterUnits="userSpaceOnUse" color-interpolation-filters="sRGB">
<feFlood flood-opacity="0" result="BackgroundImageFix"/>
<feBlend mode="normal" in="SourceGraphic" in2="BackgroundImageFix" result="shape"/>
<feColorMatrix in="SourceAlpha" type="matrix" values="0 0 0 0 0 0 0 0 0 0 0 0 0 0 0 0 0 0 127 0" result="hardAlpha"/>
<feOffset/>
<feGaussianBlur stdDeviation="7"/>
<feComposite in2="hardAlpha" operator="arithmetic" k2="-1" k3="1"/>
<feColorMatrix type="matrix" values="0 0 0 0 1 0 0 0 0 0 0 0 0 0 0 0 0 0 1 0"/>
<feBlend mode="normal" in2="shape" result="effect1_innerShadow_73_2314"/>
</filter>
<radialGradient id="paint0_radial_73_2314" cx="0" cy="0" r="1" gradientUnits="userSpaceOnUse" gradientTransform="translate(278.567 260.363) rotate(78.6901) scale(129.852)">
<stop stop-color="#FEB3B3"/>
<stop offset="1" stop-color="#FF0000"/>
</radialGradient>
<linearGradient id="paint1_linear_73_2314" x1="599.083" y1="388.771" x2="288.319" y2="355.643" gradientUnits="userSpaceOnUse">
<stop stop-color="white" stop-opacity="0.4"/>
<stop offset="1" stop-color="white" stop-opacity="0.1"/>
</linearGradient>
<linearGradient id="paint2_linear_73_2314" x1="599.083" y1="388.771" x2="301.174" y2="302.363" gradientUnits="userSpaceOnUse">
<stop stop-color="white" stop-opacity="0.4"/>
<stop offset="1" stop-color="white" stop-opacity="0"/>
</linearGradient>
<linearGradient id="paint3_linear_73_2314" x1="540.894" y1="371.894" x2="421.892" y2="351.344" gradientUnits="userSpaceOnUse">
<stop stop-color="white" stop-opacity="0.4"/>
<stop offset="1" stop-color="white" stop-opacity="0.1"/>
</linearGradient>
<linearGradient id="paint4_linear_73_2314" x1="540.894" y1="371.894" x2="426.853" y2="338.817" gradientUnits="userSpaceOnUse">
<stop stop-color="white" stop-opacity="0.4"/>
<stop offset="1" stop-color="white" stop-opacity="0"/>
</linearGradient>
<linearGradient id="paint5_linear_73_2314" x1="540.894" y1="371.894" x2="421.892" y2="351.344" gradientUnits="userSpaceOnUse">
<stop stop-color="white" stop-opacity="0.4"/>
<stop offset="1" stop-color="white" stop-opacity="0.1"/>
</linearGradient>
<linearGradient id="paint6_linear_73_2314" x1="540.894" y1="371.894" x2="426.853" y2="338.817" gradientUnits="userSpaceOnUse">
<stop stop-color="white" stop-opacity="0.4"/>
<stop offset="1" stop-color="white" stop-opacity="0"/>
</linearGradient>
<linearGradient id="paint7_linear_73_2314" x1="518.092" y1="450.512" x2="379.508" y2="447.124" gradientUnits="userSpaceOnUse">
<stop stop-color="white" stop-opacity="0.4"/>
<stop offset="1" stop-color="white" stop-opacity="0.1"/>
</linearGradient>
<linearGradient id="paint8_linear_73_2314" x1="518.092" y1="450.512" x2="383.543" y2="411.484" gradientUnits="userSpaceOnUse">
<stop stop-color="white" stop-opacity="0.4"/>
<stop offset="1" stop-color="white" stop-opacity="0"/>
</linearGradient>
<linearGradient id="paint9_linear_73_2314" x1="559.905" y1="517.718" x2="361.005" y2="506.311" gradientUnits="userSpaceOnUse">
<stop stop-color="white" stop-opacity="0.4"/>
<stop offset="1" stop-color="white" stop-opacity="0.1"/>
</linearGradient>
<linearGradient id="paint10_linear_73_2314" x1="559.905" y1="517.718" x2="368.096" y2="462.082" gradientUnits="userSpaceOnUse">
<stop stop-color="white" stop-opacity="0.4"/>
<stop offset="1" stop-color="white" stop-opacity="0"/>
</linearGradient>
<linearGradient id="paint11_linear_73_2314" x1="564.171" y1="291.639" x2="425.586" y2="288.251" gradientUnits="userSpaceOnUse">
<stop stop-color="white" stop-opacity="0.4"/>
<stop offset="1" stop-color="white" stop-opacity="0.1"/>
</linearGradient>
<linearGradient id="paint12_linear_73_2314" x1="564.171" y1="291.639" x2="429.621" y2="252.612" gradientUnits="userSpaceOnUse">
<stop stop-color="white" stop-opacity="0.4"/>
<stop offset="1" stop-color="white" stop-opacity="0"/>
</linearGradient>
<linearGradient id="paint13_linear_73_2314" x1="634.814" y1="257.362" x2="435.915" y2="245.955" gradientUnits="userSpaceOnUse">
<stop stop-color="white" stop-opacity="0.4"/>
<stop offset="1" stop-color="white" stop-opacity="0.1"/>
</linearGradient>
<linearGradient id="paint14_linear_73_2314" x1="634.814" y1="257.362" x2="443.006" y2="201.728" gradientUnits="userSpaceOnUse">
<stop stop-color="white" stop-opacity="0.4"/>
<stop offset="1" stop-color="white" stop-opacity="0"/>
</linearGradient>
<linearGradient id="paint15_linear_73_2314" x1="599.083" y1="388.771" x2="288.319" y2="355.643" gradientUnits="userSpaceOnUse">
<stop stop-color="white" stop-opacity="0.4"/>
<stop offset="1" stop-color="white" stop-opacity="0.1"/>
</linearGradient>
<linearGradient id="paint16_linear_73_2314" x1="599.083" y1="388.771" x2="301.174" y2="302.363" gradientUnits="userSpaceOnUse">
<stop stop-color="white" stop-opacity="0.4"/>
<stop offset="1" stop-color="white" stop-opacity="0"/>
</linearGradient>
<linearGradient id="paint17_linear_73_2314" x1="599.083" y1="388.771" x2="288.319" y2="355.643" gradientUnits="userSpaceOnUse">
<stop stop-color="white" stop-opacity="0.4"/>
<stop offset="1" stop-color="white" stop-opacity="0.1"/>
</linearGradient>
<linearGradient id="paint18_linear_73_2314" x1="599.083" y1="388.771" x2="301.174" y2="302.363" gradientUnits="userSpaceOnUse">
<stop stop-color="white" stop-opacity="0.4"/>
<stop offset="1" stop-color="white" stop-opacity="0"/>
</linearGradient>
<linearGradient id="paint19_linear_73_2314" x1="540.894" y1="371.894" x2="421.892" y2="351.344" gradientUnits="userSpaceOnUse">
<stop stop-color="white" stop-opacity="0.4"/>
<stop offset="1" stop-color="white" stop-opacity="0.1"/>
</linearGradient>
<linearGradient id="paint20_linear_73_2314" x1="540.894" y1="371.894" x2="426.853" y2="338.817" gradientUnits="userSpaceOnUse">
<stop stop-color="white" stop-opacity="0.4"/>
<stop offset="1" stop-color="white" stop-opacity="0"/>
</linearGradient>
<linearGradient id="paint21_linear_73_2314" x1="540.894" y1="371.894" x2="421.892" y2="351.344" gradientUnits="userSpaceOnUse">
<stop stop-color="white" stop-opacity="0.4"/>
<stop offset="1" stop-color="white" stop-opacity="0.1"/>
</linearGradient>
<linearGradient id="paint22_linear_73_2314" x1="540.894" y1="371.894" x2="426.853" y2="338.817" gradientUnits="userSpaceOnUse">
<stop stop-color="white" stop-opacity="0.4"/>
<stop offset="1" stop-color="white" stop-opacity="0"/>
</linearGradient>
<linearGradient id="paint23_linear_73_2314" x1="518.092" y1="450.512" x2="379.508" y2="447.124" gradientUnits="userSpaceOnUse">
<stop stop-color="white" stop-opacity="0.4"/>
<stop offset="1" stop-color="white" stop-opacity="0.1"/>
</linearGradient>
<linearGradient id="paint24_linear_73_2314" x1="518.092" y1="450.512" x2="383.543" y2="411.484" gradientUnits="userSpaceOnUse">
<stop stop-color="white" stop-opacity="0.4"/>
<stop offset="1" stop-color="white" stop-opacity="0"/>
</linearGradient>
<linearGradient id="paint25_linear_73_2314" x1="473.588" y1="265.365" x2="335.004" y2="261.977" gradientUnits="userSpaceOnUse">
<stop stop-color="white" stop-opacity="0.4"/>
<stop offset="1" stop-color="white" stop-opacity="0.1"/>
</linearGradient>
<linearGradient id="paint26_linear_73_2314" x1="473.588" y1="265.365" x2="339.041" y2="226.338" gradientUnits="userSpaceOnUse">
<stop stop-color="white" stop-opacity="0.4"/>
<stop offset="1" stop-color="white" stop-opacity="0"/>
</linearGradient>
<linearGradient id="paint27_linear_73_2314" x1="559.905" y1="517.718" x2="361.005" y2="506.311" gradientUnits="userSpaceOnUse">
<stop stop-color="white" stop-opacity="0.4"/>
<stop offset="1" stop-color="white" stop-opacity="0.1"/>
</linearGradient>
<linearGradient id="paint28_linear_73_2314" x1="559.905" y1="517.718" x2="368.096" y2="462.082" gradientUnits="userSpaceOnUse">
<stop stop-color="white" stop-opacity="0.4"/>
<stop offset="1" stop-color="white" stop-opacity="0"/>
</linearGradient>
<linearGradient id="paint29_linear_73_2314" x1="564.171" y1="291.639" x2="425.586" y2="288.251" gradientUnits="userSpaceOnUse">
<stop stop-color="white" stop-opacity="0.4"/>
<stop offset="1" stop-color="white" stop-opacity="0.1"/>
</linearGradient>
<linearGradient id="paint30_linear_73_2314" x1="564.171" y1="291.639" x2="429.621" y2="252.612" gradientUnits="userSpaceOnUse">
<stop stop-color="white" stop-opacity="0.4"/>
<stop offset="1" stop-color="white" stop-opacity="0"/>
</linearGradient>
<linearGradient id="paint31_linear_73_2314" x1="426.054" y1="422.038" x2="287.469" y2="418.65" gradientUnits="userSpaceOnUse">
<stop stop-color="white" stop-opacity="0.4"/>
<stop offset="1" stop-color="white" stop-opacity="0.1"/>
</linearGradient>
<linearGradient id="paint32_linear_73_2314" x1="426.054" y1="422.038" x2="291.506" y2="383.013" gradientUnits="userSpaceOnUse">
<stop stop-color="white" stop-opacity="0.4"/>
<stop offset="1" stop-color="white" stop-opacity="0"/>
</linearGradient>
<linearGradient id="paint33_linear_73_2314" x1="634.814" y1="257.362" x2="435.915" y2="245.955" gradientUnits="userSpaceOnUse">
<stop stop-color="white" stop-opacity="0.4"/>
<stop offset="1" stop-color="white" stop-opacity="0.1"/>
</linearGradient>
<linearGradient id="paint34_linear_73_2314" x1="634.814" y1="257.362" x2="443.006" y2="201.728" gradientUnits="userSpaceOnUse">
<stop stop-color="white" stop-opacity="0.4"/>
<stop offset="1" stop-color="white" stop-opacity="0"/>
</linearGradient>
<linearGradient id="paint35_linear_73_2314" x1="486.908" y1="216.415" x2="75.9156" y2="303.155" gradientUnits="userSpaceOnUse">
<stop stop-color="white" stop-opacity="0.4"/>
<stop offset="1" stop-color="white" stop-opacity="0.1"/>
</linearGradient>
<linearGradient id="paint36_linear_73_2314" x1="486.908" y1="216.415" x2="40.0534" y2="86.8059" gradientUnits="userSpaceOnUse">
<stop stop-color="white" stop-opacity="0.4"/>
<stop offset="1" stop-color="white" stop-opacity="0"/>
</linearGradient>
<linearGradient id="paint37_linear_73_2314" x1="399.641" y1="191.093" x2="149.169" y2="243.963" gradientUnits="userSpaceOnUse">
<stop stop-color="white" stop-opacity="0.4"/>
<stop offset="1" stop-color="white" stop-opacity="0.1"/>
</linearGradient>
<linearGradient id="paint38_linear_73_2314" x1="399.641" y1="191.093" x2="127.306" y2="112.102" gradientUnits="userSpaceOnUse">
<stop stop-color="white" stop-opacity="0.4"/>
<stop offset="1" stop-color="white" stop-opacity="0"/>
</linearGradient>
<linearGradient id="paint39_linear_73_2314" x1="399.641" y1="191.093" x2="149.169" y2="243.963" gradientUnits="userSpaceOnUse">
<stop stop-color="white" stop-opacity="0.4"/>
<stop offset="1" stop-color="white" stop-opacity="0.1"/>
</linearGradient>
<linearGradient id="paint40_linear_73_2314" x1="399.641" y1="191.093" x2="127.306" y2="112.102" gradientUnits="userSpaceOnUse">
<stop stop-color="white" stop-opacity="0.4"/>
<stop offset="1" stop-color="white" stop-opacity="0"/>
</linearGradient>
<linearGradient id="paint41_linear_73_2314" x1="437.764" y1="138.757" x2="349.445" y2="215.567" gradientUnits="userSpaceOnUse">
<stop stop-color="white" stop-opacity="0.4"/>
<stop offset="1" stop-color="white" stop-opacity="0.1"/>
</linearGradient>
<linearGradient id="paint42_linear_73_2314" x1="437.764" y1="138.757" x2="235.045" y2="79.9568" gradientUnits="userSpaceOnUse">
<stop stop-color="white" stop-opacity="0.4"/>
<stop offset="1" stop-color="white" stop-opacity="0"/>
</linearGradient>
<linearGradient id="paint43_linear_73_2314" x1="540.221" y1="114.732" x2="457.673" y2="216.94" gradientUnits="userSpaceOnUse">
<stop stop-color="white" stop-opacity="0.4"/>
<stop offset="1" stop-color="white" stop-opacity="0.1"/>
</linearGradient>
<linearGradient id="paint44_linear_73_2314" x1="540.221" y1="114.732" x2="221.399" y2="22.2573" gradientUnits="userSpaceOnUse">
<stop stop-color="white" stop-opacity="0.4"/>
<stop offset="1" stop-color="white" stop-opacity="0"/>
</linearGradient>
<linearGradient id="paint45_linear_73_2314" x1="234.241" y1="164.337" x2="115.304" y2="151.956" gradientUnits="userSpaceOnUse">
<stop stop-color="white" stop-opacity="0.4"/>
<stop offset="1" stop-color="white" stop-opacity="0.1"/>
</linearGradient>
<linearGradient id="paint46_linear_73_2314" x1="234.241" y1="164.337" x2="120.202" y2="131.26" gradientUnits="userSpaceOnUse">
<stop stop-color="white" stop-opacity="0.4"/>
<stop offset="1" stop-color="white" stop-opacity="0"/>
</linearGradient>
<linearGradient id="paint47_linear_73_2314" x1="205.788" y1="157.778" x2="25.461" y2="139.05" gradientUnits="userSpaceOnUse">
<stop stop-color="white" stop-opacity="0.4"/>
<stop offset="1" stop-color="white" stop-opacity="0.1"/>
</linearGradient>
<linearGradient id="paint48_linear_73_2314" x1="205.788" y1="157.777" x2="32.8843" y2="107.627" gradientUnits="userSpaceOnUse">
<stop stop-color="white" stop-opacity="0.4"/>
<stop offset="1" stop-color="white" stop-opacity="0"/>
</linearGradient>
<linearGradient id="paint49_linear_73_2314" x1="486.908" y1="216.415" x2="75.9156" y2="303.155" gradientUnits="userSpaceOnUse">
<stop stop-color="white" stop-opacity="0.4"/>
<stop offset="1" stop-color="white" stop-opacity="0.1"/>
</linearGradient>
<linearGradient id="paint50_linear_73_2314" x1="486.908" y1="216.415" x2="40.0534" y2="86.8059" gradientUnits="userSpaceOnUse">
<stop stop-color="white" stop-opacity="0.4"/>
<stop offset="1" stop-color="white" stop-opacity="0"/>
</linearGradient>
<linearGradient id="paint51_linear_73_2314" x1="486.908" y1="216.415" x2="75.9156" y2="303.155" gradientUnits="userSpaceOnUse">
<stop stop-color="white" stop-opacity="0.4"/>
<stop offset="1" stop-color="white" stop-opacity="0.1"/>
</linearGradient>
<linearGradient id="paint52_linear_73_2314" x1="486.908" y1="216.415" x2="40.0534" y2="86.8059" gradientUnits="userSpaceOnUse">
<stop stop-color="white" stop-opacity="0.4"/>
<stop offset="1" stop-color="white" stop-opacity="0"/>
</linearGradient>
<linearGradient id="paint53_linear_73_2314" x1="399.641" y1="191.093" x2="149.169" y2="243.963" gradientUnits="userSpaceOnUse">
<stop stop-color="white" stop-opacity="0.4"/>
<stop offset="1" stop-color="white" stop-opacity="0.1"/>
</linearGradient>
<linearGradient id="paint54_linear_73_2314" x1="399.641" y1="191.093" x2="127.306" y2="112.102" gradientUnits="userSpaceOnUse">
<stop stop-color="white" stop-opacity="0.4"/>
<stop offset="1" stop-color="white" stop-opacity="0"/>
</linearGradient>
<linearGradient id="paint55_linear_73_2314" x1="399.641" y1="191.093" x2="149.169" y2="243.963" gradientUnits="userSpaceOnUse">
<stop stop-color="white" stop-opacity="0.4"/>
<stop offset="1" stop-color="white" stop-opacity="0.1"/>
</linearGradient>
<linearGradient id="paint56_linear_73_2314" x1="399.641" y1="191.093" x2="127.306" y2="112.102" gradientUnits="userSpaceOnUse">
<stop stop-color="white" stop-opacity="0.4"/>
<stop offset="1" stop-color="white" stop-opacity="0"/>
</linearGradient>
<linearGradient id="paint57_linear_73_2314" x1="437.764" y1="138.757" x2="349.445" y2="215.567" gradientUnits="userSpaceOnUse">
<stop stop-color="white" stop-opacity="0.4"/>
<stop offset="1" stop-color="white" stop-opacity="0.1"/>
</linearGradient>
<linearGradient id="paint58_linear_73_2314" x1="437.764" y1="138.757" x2="235.045" y2="79.9568" gradientUnits="userSpaceOnUse">
<stop stop-color="white" stop-opacity="0.4"/>
<stop offset="1" stop-color="white" stop-opacity="0"/>
</linearGradient>
<linearGradient id="paint59_linear_73_2314" x1="299.649" y1="269.868" x2="211.33" y2="346.672" gradientUnits="userSpaceOnUse">
<stop stop-color="white" stop-opacity="0.4"/>
<stop offset="1" stop-color="white" stop-opacity="0.1"/>
</linearGradient>
<linearGradient id="paint60_linear_73_2314" x1="299.649" y1="269.868" x2="96.9493" y2="211.075" gradientUnits="userSpaceOnUse">
<stop stop-color="white" stop-opacity="0.4"/>
<stop offset="1" stop-color="white" stop-opacity="0"/>
</linearGradient>
<linearGradient id="paint61_linear_73_2314" x1="540.221" y1="114.732" x2="457.673" y2="216.94" gradientUnits="userSpaceOnUse">
<stop stop-color="white" stop-opacity="0.4"/>
<stop offset="1" stop-color="white" stop-opacity="0.1"/>
</linearGradient>
<linearGradient id="paint62_linear_73_2314" x1="540.221" y1="114.732" x2="221.399" y2="22.2573" gradientUnits="userSpaceOnUse">
<stop stop-color="white" stop-opacity="0.4"/>
<stop offset="1" stop-color="white" stop-opacity="0"/>
</linearGradient>
<linearGradient id="paint63_linear_73_2314" x1="234.241" y1="164.337" x2="115.304" y2="151.956" gradientUnits="userSpaceOnUse">
<stop stop-color="white" stop-opacity="0.4"/>
<stop offset="1" stop-color="white" stop-opacity="0.1"/>
</linearGradient>
<linearGradient id="paint64_linear_73_2314" x1="234.241" y1="164.337" x2="120.202" y2="131.26" gradientUnits="userSpaceOnUse">
<stop stop-color="white" stop-opacity="0.4"/>
<stop offset="1" stop-color="white" stop-opacity="0"/>
</linearGradient>
<linearGradient id="paint65_linear_73_2314" x1="416.234" y1="218.754" x2="297.294" y2="206.373" gradientUnits="userSpaceOnUse">
<stop stop-color="white" stop-opacity="0.4"/>
<stop offset="1" stop-color="white" stop-opacity="0.1"/>
</linearGradient>
<linearGradient id="paint66_linear_73_2314" x1="416.234" y1="218.754" x2="302.192" y2="185.677" gradientUnits="userSpaceOnUse">
<stop stop-color="white" stop-opacity="0.4"/>
<stop offset="1" stop-color="white" stop-opacity="0"/>
</linearGradient>
<linearGradient id="paint67_linear_73_2314" x1="205.788" y1="157.778" x2="25.461" y2="139.05" gradientUnits="userSpaceOnUse">
<stop stop-color="white" stop-opacity="0.4"/>
<stop offset="1" stop-color="white" stop-opacity="0.1"/>
</linearGradient>
<linearGradient id="paint68_linear_73_2314" x1="205.788" y1="157.777" x2="32.8843" y2="107.627" gradientUnits="userSpaceOnUse">
<stop stop-color="white" stop-opacity="0.4"/>
<stop offset="1" stop-color="white" stop-opacity="0"/>
</linearGradient>
<linearGradient id="paint69_linear_73_2314" x1="411.926" y1="474.932" x2="0.93174" y2="561.67" gradientUnits="userSpaceOnUse">
<stop stop-color="white" stop-opacity="0.4"/>
<stop offset="1" stop-color="white" stop-opacity="0.1"/>
</linearGradient>
<linearGradient id="paint70_linear_73_2314" x1="411.926" y1="474.932" x2="-34.9303" y2="345.32" gradientUnits="userSpaceOnUse">
<stop stop-color="white" stop-opacity="0.4"/>
<stop offset="1" stop-color="white" stop-opacity="0"/>
</linearGradient>
<linearGradient id="paint71_linear_73_2314" x1="324.658" y1="449.61" x2="74.1863" y2="502.477" gradientUnits="userSpaceOnUse">
<stop stop-color="white" stop-opacity="0.4"/>
<stop offset="1" stop-color="white" stop-opacity="0.1"/>
</linearGradient>
<linearGradient id="paint72_linear_73_2314" x1="324.658" y1="449.61" x2="52.3239" y2="370.618" gradientUnits="userSpaceOnUse">
<stop stop-color="white" stop-opacity="0.4"/>
<stop offset="1" stop-color="white" stop-opacity="0"/>
</linearGradient>
<linearGradient id="paint73_linear_73_2314" x1="324.658" y1="449.61" x2="74.1863" y2="502.477" gradientUnits="userSpaceOnUse">
<stop stop-color="white" stop-opacity="0.4"/>
<stop offset="1" stop-color="white" stop-opacity="0.1"/>
</linearGradient>
<linearGradient id="paint74_linear_73_2314" x1="324.658" y1="449.61" x2="52.3239" y2="370.618" gradientUnits="userSpaceOnUse">
<stop stop-color="white" stop-opacity="0.4"/>
<stop offset="1" stop-color="white" stop-opacity="0"/>
</linearGradient>
<linearGradient id="paint75_linear_73_2314" x1="328.858" y1="514.222" x2="240.541" y2="591.033" gradientUnits="userSpaceOnUse">
<stop stop-color="white" stop-opacity="0.4"/>
<stop offset="1" stop-color="white" stop-opacity="0.1"/>
</linearGradient>
<linearGradient id="paint76_linear_73_2314" x1="328.858" y1="514.222" x2="126.141" y2="455.425" gradientUnits="userSpaceOnUse">
<stop stop-color="white" stop-opacity="0.4"/>
<stop offset="1" stop-color="white" stop-opacity="0"/>
</linearGradient>
<linearGradient id="paint77_linear_73_2314" x1="402.56" y1="589.34" x2="320.012" y2="691.548" gradientUnits="userSpaceOnUse">
<stop stop-color="white" stop-opacity="0.4"/>
<stop offset="1" stop-color="white" stop-opacity="0.1"/>
</linearGradient>
<linearGradient id="paint78_linear_73_2314" x1="402.56" y1="589.34" x2="83.737" y2="496.865" gradientUnits="userSpaceOnUse">
<stop stop-color="white" stop-opacity="0.4"/>
<stop offset="1" stop-color="white" stop-opacity="0"/>
</linearGradient>
<linearGradient id="paint79_linear_73_2314" x1="170.613" y1="383.711" x2="51.673" y2="371.33" gradientUnits="userSpaceOnUse">
<stop stop-color="white" stop-opacity="0.4"/>
<stop offset="1" stop-color="white" stop-opacity="0.1"/>
</linearGradient>
<linearGradient id="paint80_linear_73_2314" x1="170.613" y1="383.711" x2="56.5714" y2="350.634" gradientUnits="userSpaceOnUse">
<stop stop-color="white" stop-opacity="0.4"/>
<stop offset="1" stop-color="white" stop-opacity="0"/>
</linearGradient>
<linearGradient id="paint81_linear_73_2314" x1="143.065" y1="374.026" x2="-37.2607" y2="355.296" gradientUnits="userSpaceOnUse">
<stop stop-color="white" stop-opacity="0.4"/>
<stop offset="1" stop-color="white" stop-opacity="0.1"/>
</linearGradient>
<linearGradient id="paint82_linear_73_2314" x1="143.065" y1="374.026" x2="-29.8374" y2="323.875" gradientUnits="userSpaceOnUse">
<stop stop-color="white" stop-opacity="0.4"/>
<stop offset="1" stop-color="white" stop-opacity="0"/>
</linearGradient>
<linearGradient id="paint83_linear_73_2314" x1="411.926" y1="474.932" x2="0.93174" y2="561.67" gradientUnits="userSpaceOnUse">
<stop stop-color="white" stop-opacity="0.4"/>
<stop offset="1" stop-color="white" stop-opacity="0.1"/>
</linearGradient>
<linearGradient id="paint84_linear_73_2314" x1="411.926" y1="474.932" x2="-34.9303" y2="345.32" gradientUnits="userSpaceOnUse">
<stop stop-color="white" stop-opacity="0.4"/>
<stop offset="1" stop-color="white" stop-opacity="0"/>
</linearGradient>
<linearGradient id="paint85_linear_73_2314" x1="411.926" y1="474.932" x2="0.93174" y2="561.67" gradientUnits="userSpaceOnUse">
<stop stop-color="white" stop-opacity="0.4"/>
<stop offset="1" stop-color="white" stop-opacity="0.1"/>
</linearGradient>
<linearGradient id="paint86_linear_73_2314" x1="411.926" y1="474.932" x2="-34.9303" y2="345.32" gradientUnits="userSpaceOnUse">
<stop stop-color="white" stop-opacity="0.4"/>
<stop offset="1" stop-color="white" stop-opacity="0"/>
</linearGradient>
<linearGradient id="paint87_linear_73_2314" x1="324.658" y1="449.61" x2="74.1863" y2="502.477" gradientUnits="userSpaceOnUse">
<stop stop-color="white" stop-opacity="0.4"/>
<stop offset="1" stop-color="white" stop-opacity="0.1"/>
</linearGradient>
<linearGradient id="paint88_linear_73_2314" x1="324.658" y1="449.61" x2="52.3239" y2="370.618" gradientUnits="userSpaceOnUse">
<stop stop-color="white" stop-opacity="0.4"/>
<stop offset="1" stop-color="white" stop-opacity="0"/>
</linearGradient>
<linearGradient id="paint89_linear_73_2314" x1="324.658" y1="449.61" x2="74.1863" y2="502.477" gradientUnits="userSpaceOnUse">
<stop stop-color="white" stop-opacity="0.4"/>
<stop offset="1" stop-color="white" stop-opacity="0.1"/>
</linearGradient>
<linearGradient id="paint90_linear_73_2314" x1="324.658" y1="449.61" x2="52.3239" y2="370.618" gradientUnits="userSpaceOnUse">
<stop stop-color="white" stop-opacity="0.4"/>
<stop offset="1" stop-color="white" stop-opacity="0"/>
</linearGradient>
<linearGradient id="paint91_linear_73_2314" x1="328.858" y1="514.222" x2="240.541" y2="591.033" gradientUnits="userSpaceOnUse">
<stop stop-color="white" stop-opacity="0.4"/>
<stop offset="1" stop-color="white" stop-opacity="0.1"/>
</linearGradient>
<linearGradient id="paint92_linear_73_2314" x1="328.858" y1="514.222" x2="126.141" y2="455.425" gradientUnits="userSpaceOnUse">
<stop stop-color="white" stop-opacity="0.4"/>
<stop offset="1" stop-color="white" stop-opacity="0"/>
</linearGradient>
<linearGradient id="paint93_linear_73_2314" x1="282.336" y1="329.557" x2="194.017" y2="406.362" gradientUnits="userSpaceOnUse">
<stop stop-color="white" stop-opacity="0.4"/>
<stop offset="1" stop-color="white" stop-opacity="0.1"/>
</linearGradient>
<linearGradient id="paint94_linear_73_2314" x1="282.336" y1="329.557" x2="79.6364" y2="270.765" gradientUnits="userSpaceOnUse">
<stop stop-color="white" stop-opacity="0.4"/>
<stop offset="1" stop-color="white" stop-opacity="0"/>
</linearGradient>
<linearGradient id="paint95_linear_73_2314" x1="402.56" y1="589.34" x2="320.012" y2="691.548" gradientUnits="userSpaceOnUse">
<stop stop-color="white" stop-opacity="0.4"/>
<stop offset="1" stop-color="white" stop-opacity="0.1"/>
</linearGradient>
<linearGradient id="paint96_linear_73_2314" x1="402.56" y1="589.34" x2="83.737" y2="496.865" gradientUnits="userSpaceOnUse">
<stop stop-color="white" stop-opacity="0.4"/>
<stop offset="1" stop-color="white" stop-opacity="0"/>
</linearGradient>
<linearGradient id="paint97_linear_73_2314" x1="170.613" y1="383.711" x2="51.673" y2="371.33" gradientUnits="userSpaceOnUse">
<stop stop-color="white" stop-opacity="0.4"/>
<stop offset="1" stop-color="white" stop-opacity="0.1"/>
</linearGradient>
<linearGradient id="paint98_linear_73_2314" x1="170.613" y1="383.711" x2="56.5714" y2="350.634" gradientUnits="userSpaceOnUse">
<stop stop-color="white" stop-opacity="0.4"/>
<stop offset="1" stop-color="white" stop-opacity="0"/>
</linearGradient>
<linearGradient id="paint99_linear_73_2314" x1="353.47" y1="435.128" x2="234.533" y2="422.749" gradientUnits="userSpaceOnUse">
<stop stop-color="white" stop-opacity="0.4"/>
<stop offset="1" stop-color="white" stop-opacity="0.1"/>
</linearGradient>
<linearGradient id="paint100_linear_73_2314" x1="353.47" y1="435.128" x2="239.431" y2="402.051" gradientUnits="userSpaceOnUse">
<stop stop-color="white" stop-opacity="0.4"/>
<stop offset="1" stop-color="white" stop-opacity="0"/>
</linearGradient>
<linearGradient id="paint101_linear_73_2314" x1="143.065" y1="374.026" x2="-37.2607" y2="355.296" gradientUnits="userSpaceOnUse">
<stop stop-color="white" stop-opacity="0.4"/>
<stop offset="1" stop-color="white" stop-opacity="0.1"/>
</linearGradient>
<linearGradient id="paint102_linear_73_2314" x1="143.065" y1="374.026" x2="-29.8374" y2="323.875" gradientUnits="userSpaceOnUse">
<stop stop-color="white" stop-opacity="0.4"/>
<stop offset="1" stop-color="white" stop-opacity="0"/>
</linearGradient>
<linearGradient id="paint103_linear_73_2314" x1="599.083" y1="388.771" x2="288.319" y2="355.643" gradientUnits="userSpaceOnUse">
<stop stop-color="white" stop-opacity="0.4"/>
<stop offset="1" stop-color="white" stop-opacity="0.1"/>
</linearGradient>
<linearGradient id="paint104_linear_73_2314" x1="599.083" y1="388.771" x2="301.174" y2="302.363" gradientUnits="userSpaceOnUse">
<stop stop-color="white" stop-opacity="0.4"/>
<stop offset="1" stop-color="white" stop-opacity="0"/>
</linearGradient>
<linearGradient id="paint105_linear_73_2314" x1="486.908" y1="216.415" x2="75.9156" y2="303.155" gradientUnits="userSpaceOnUse">
<stop stop-color="white" stop-opacity="0.4"/>
<stop offset="1" stop-color="white" stop-opacity="0.1"/>
</linearGradient>
<linearGradient id="paint106_linear_73_2314" x1="486.908" y1="216.415" x2="40.0534" y2="86.8059" gradientUnits="userSpaceOnUse">
<stop stop-color="white" stop-opacity="0.4"/>
<stop offset="1" stop-color="white" stop-opacity="0"/>
</linearGradient>
<linearGradient id="paint107_linear_73_2314" x1="411.926" y1="474.932" x2="0.93174" y2="561.67" gradientUnits="userSpaceOnUse">
<stop stop-color="white" stop-opacity="0.4"/>
<stop offset="1" stop-color="white" stop-opacity="0.1"/>
</linearGradient>
<linearGradient id="paint108_linear_73_2314" x1="411.926" y1="474.932" x2="-34.9303" y2="345.32" gradientUnits="userSpaceOnUse">
<stop stop-color="white" stop-opacity="0.4"/>
<stop offset="1" stop-color="white" stop-opacity="0"/>
</linearGradient>
</defs>
</svg>
